<?xml version="1.0" encoding="utf-8"?>
<!-- Generator: Adobe Illustrator 25.2.1, SVG Export Plug-In . SVG Version: 6.00 Build 0)  -->
<svg version="1.1" id="Layer_1" xmlns="http://www.w3.org/2000/svg" xmlns:xlink="http://www.w3.org/1999/xlink" x="0px" y="0px"
	 viewBox="0 0 33 32" style="enable-background:new 0 0 33 32;" xml:space="preserve">
<style type="text/css">
	.st0{fill:#377DFF;}
</style>
<desc>Created with Sketch.</desc>
<g id="surface1">
	<path class="st0" d="M21.1,0.2C20.9,0.1,20.7,0,20.5,0H8C5.7,0,3.8,1.9,3.8,4.2v23.6C3.8,30.1,5.7,32,8,32H25
		c2.3,0,4.2-1.9,4.2-4.2V9.1c0-0.2-0.1-0.4-0.2-0.5L21.1,0.2z M21.3,2.7l5.3,5.5h-3.4c-1,0-1.8-0.8-1.8-1.8V2.7z M25,30.5H8
		c-1.4,0-2.7-1.2-2.7-2.7V4.2c0-1.4,1.2-2.7,2.7-2.7h11.7v4.9c0,1.9,1.5,3.4,3.4,3.4h4.5v18C27.6,29.3,26.4,30.5,25,30.5z"/>
	<path class="st0" d="M22.9,25.1H10.1c-0.4,0-0.8,0.3-0.8,0.8c0,0.4,0.3,0.8,0.8,0.8h12.7c0.4,0,0.8-0.3,0.8-0.8
		C23.6,25.5,23.3,25.1,22.9,25.1z"/>
	<path class="st0" d="M15.9,22.3c0.1,0.2,0.3,0.2,0.6,0.2c0.2,0,0.4-0.1,0.6-0.2l4.5-4.9c0.3-0.3,0.3-0.8,0-1.1
		c-0.3-0.3-0.8-0.3-1.1,0l-3.2,3.4v-8.4c0-0.4-0.3-0.8-0.8-0.8s-0.8,0.3-0.8,0.8v8.4l-3.2-3.4c-0.3-0.3-0.8-0.3-1.1,0
		s-0.3,0.8,0,1.1L15.9,22.3z"/>
</g>
</svg>
