<?xml version="1.0" encoding="UTF-8"?>
<svg width="70px" height="70px" viewBox="0 0 70 70" version="1.1" xmlns="http://www.w3.org/2000/svg" xmlns:xlink="http://www.w3.org/1999/xlink">
    <!-- Generator: Sketch 52 (66869) - http://www.bohemiancoding.com/sketch -->
    <title>icon-agencies</title>
    <desc>Created with Sketch.</desc>
    <g id="Design" stroke="none" stroke-width="1" fill="none" fill-rule="evenodd">
        <g id="Design-V.2.0" transform="translate(-266.000000, -1914.000000)" fill-rule="nonzero">
            <g id="Value-Proposition" transform="translate(0.000000, 1676.000000)">
                <g id="Agencies" transform="translate(126.000000, 198.000000)">
                    <g id="icon-agencies" transform="translate(140.000000, 40.000000)">
                        <path d="M64.5613098,14.6506043 L61.2818642,15.0935283 L56.9610521,12.1461598 L65.0590999,2.58194932 L61.2302183,0 L50.4166053,7.68157895 L46.6940134,5.14220273 C44.9639444,3.97580897 42.6088102,4.43633528 41.4442568,6.16859649 C40.8799676,7.00777778 40.6758368,8.01670565 40.8694749,9.00953216 C41.0631129,10.0023587 41.6312176,10.8603704 42.4749942,11.4293762 L46.2206155,13.9174464 L43.1785502,26.8465692 L47.0077043,29.4281092 L52.8198424,18.301384 L57.0601196,21.1180312 L57.8837284,24.3265692 L61.8908496,27.0283236 L63.5745873,21.2325146 L68.5827393,17.3616374 L64.5613098,14.6506043 Z M61.2607425,2.5111306 L61.9950952,3.00617934 L55.2467903,10.9764912 L52.2355217,8.92233918 L61.2607425,2.5111306 Z M46.2480056,26.425614 L45.5136528,25.9305653 L48.0537038,15.1352827 L51.0915448,17.1532749 L46.2480056,26.425614 Z M61.7816983,20.0088109 L60.6994512,23.7345029 L59.6867013,23.0516959 L58.8611847,19.8353801 L43.6212876,9.7119883 C43.24028,9.45518519 42.9821868,9.06520468 42.8941571,8.61382066 C42.8062637,8.1625731 42.8989265,7.70395712 43.1555207,7.3225731 C43.6849251,6.53524366 44.7553168,6.32592593 45.5370911,6.85276803 L60.7743991,17.2466082 L64.0601131,16.8028655 L65.0588273,17.4761209 L61.7816983,20.0088109 Z" id="Shape" fill="#fff"></path>
                        <path d="M3.76674299,45.2204094 L1.80583453,45.8626901 C2.02577242,46.5356725 2.26942109,47.2104288 2.53010336,47.8679922 L4.44754206,47.10577 C4.20266698,46.4876413 3.97359907,45.8532749 3.76674299,45.2204094 Z" id="Shape" fill="#F29D00"></path>
                        <path d="M0.596721205,29.0494542 C0.476804635,29.7449513 0.376647045,30.4538207 0.29924635,31.1562768 L2.3498197,31.382924 C2.42272352,30.7219493 2.51688528,30.0552437 2.62971587,29.4009552 L0.596721205,29.0494542 Z" id="Shape" fill="#F29D00"></path>
                        <path d="M5.00556292,17.1510916 C4.64363291,17.7568031 4.29560232,18.3814815 3.97141877,19.0077973 L5.80300811,19.9583236 C6.10811402,19.3693957 6.43543175,18.7816959 6.77583129,18.2120078 L5.00556292,17.1510916 Z" id="Shape" fill="#F29D00"></path>
                        <path d="M3.05296686,20.9239961 C2.76802874,21.5685965 2.49903407,22.2306628 2.25375017,22.8921832 L4.18781367,23.6115595 C4.41865307,22.9893372 4.67143175,22.3667057 4.93947254,21.7604483 L3.05296686,20.9239961 Z" id="Shape" fill="#F29D00"></path>
                        <path d="M1.57554021,24.9093567 C1.37113696,25.5853411 1.18513001,26.2767446 1.0225613,26.9644639 L3.03020997,27.4402729 C3.18296732,26.7936257 3.3579365,26.1435673 3.55007555,25.5079727 L1.57554021,24.9093567 Z" id="Shape" fill="#F29D00"></path>
                        <path d="M7.40375805,13.6430409 C6.97069571,14.2007212 6.54921622,14.7785965 6.15131124,15.3605653 L7.85371773,16.5275049 C8.22791194,15.979922 8.62445423,15.4361598 9.03217057,14.9113645 L7.40375805,13.6430409 Z" id="Shape" fill="#F29D00"></path>
                        <path d="M2.2344,37.3821832 L0.176604403,37.5288694 C0.226615064,38.2335088 0.298973812,38.945653 0.391772885,39.6453801 L2.43689548,39.3738402 C2.34968343,38.7153216 2.28154902,38.0453411 2.2344,37.3821832 Z" id="Shape" fill="#F29D00"></path>
                        <path d="M2.19106651,33.3784016 L0.130681808,33.2767446 C0.102201622,33.8538012 0.0877571263,34.4402729 0.0877571263,35.0196491 C0.0877571263,35.1479142 0.0884384705,35.2759064 0.0898011587,35.4037622 L2.15277497,35.381384 C2.15154855,35.2608967 2.15086721,35.1402729 2.15086721,35.0196491 C2.15086721,34.4741131 2.16449409,33.9217544 2.19106651,33.3784016 Z" id="Shape" fill="#F29D00"></path>
                        <path d="M2.76039768,41.3487135 L0.735715411,41.7453801 C0.871166628,42.4393762 1.03005608,43.1374659 1.2074781,43.8204094 L3.20408899,43.3002534 C3.03729594,42.6581092 2.88794531,42.0013645 2.76039768,41.3487135 Z" id="Shape" fill="#F29D00"></path>
                        <path d="M35.0991713,0.176569201 L35.0864983,2.24245614 C35.7502637,2.24641326 36.4226141,2.27111111 37.0851532,2.31559454 L37.2230572,0.254346979 C36.5190925,0.206998051 35.804635,0.18079922 35.0991713,0.176569201 Z" id="Shape" fill="#F29D00"></path>
                        <path d="M24.6263666,1.71506823 C23.9506095,1.92356725 23.2728083,2.15580897 22.611632,2.40551657 L23.3394438,4.33849903 C23.9612385,4.10380117 24.5985678,3.88534113 25.2338531,3.68939571 L24.6263666,1.71506823 Z" id="Shape" fill="#F29D00"></path>
                        <path d="M32.9756941,0.227329435 C32.2700941,0.265672515 31.5578169,0.325847953 30.8586216,0.40662768 L31.095048,2.4588694 C31.7526813,2.38300195 32.423124,2.32623782 33.087162,2.29035088 L32.9756941,0.227329435 Z" id="Shape" fill="#F29D00"></path>
                        <path d="M5.24307949,48.9452827 L3.37606025,49.8240351 C3.67653302,50.4639961 4.00071657,51.1031384 4.33975342,51.7234503 L6.14940348,50.7317154 C5.83067068,50.1482456 5.52570104,49.5473099 5.24307949,48.9452827 Z" id="Shape" fill="#F29D00"></path>
                        <path d="M28.756266,0.71460039 C28.0622489,0.837953216 27.3623722,0.984912281 26.6761224,1.15097466 L27.1609669,3.15900585 C27.8064723,3.00276803 28.4645145,2.86467836 29.1171059,2.7485575 L28.756266,0.71460039 Z" id="Shape" fill="#F29D00"></path>
                        <path d="M69.199492,29.2092398 L67.1648621,29.551462 C67.2746948,30.2062963 67.3659949,30.8738207 67.4357645,31.535614 L69.487428,31.3183821 C69.4131615,30.6149708 69.3162744,29.9052827 69.199492,29.2092398 Z" id="Shape" fill="#F29D00"></path>
                        <path d="M13.3833706,7.62194932 C12.829029,8.05873294 12.2806832,8.51844055 11.7537316,8.98824561 L13.1256862,10.5311111 C13.6217048,10.0888694 14.1374823,9.65631579 14.6592556,9.24532164 L13.3833706,7.62194932 Z" id="Shape" fill="#F29D00"></path>
                        <path d="M68.2393418,25.0631384 L66.2619448,25.6526121 C66.4513585,26.2897076 66.6233298,26.9408577 66.7733618,27.5881871 L68.7830545,27.121384 C68.6236199,26.4331189 68.4407472,25.7406238 68.2393418,25.0631384 Z" id="Shape" fill="#F29D00"></path>
                        <path d="M16.8779847,5.1982846 C16.2747226,5.56424951 15.6744584,5.95409357 15.0935444,6.35690058 L16.2681817,8.05518519 C16.8146197,7.67598441 17.3793177,7.30947368 17.9468774,6.96506823 L16.8779847,5.1982846 Z" id="Shape" fill="#F29D00"></path>
                        <path d="M10.2102146,10.4511501 C9.71310591,10.9517934 9.22458216,11.4744055 8.75854276,12.004386 L10.3069655,13.3695906 C10.7457511,12.8707212 11.2052496,12.3789474 11.6731968,11.9076413 L10.2102146,10.4511501 Z" id="Shape" fill="#F29D00"></path>
                        <path d="M20.6436375,3.21836257 C19.9993585,3.50805068 19.3556246,3.82175439 18.7301506,4.15060429 L19.6893469,5.97961014 C20.2776195,5.67040936 20.8830619,5.37539961 21.4889131,5.10304094 L20.6436375,3.21836257 Z" id="Shape" fill="#F29D00"></path>
                        <path d="M57.4685173,58.7473294 C56.9881696,59.2059454 56.4873817,59.655692 55.9797803,60.084425 L57.3101729,61.6634503 C57.8495249,61.2078363 58.381791,60.7297076 58.8921177,60.2424366 L57.4685173,58.7473294 Z" id="Shape" fill="#F29D00"></path>
                        <path d="M62.5328121,52.5753216 C62.1771504,53.1358674 61.7994132,53.692729 61.4103657,54.2304873 L63.0810216,55.4425926 C63.4945975,54.8709942 63.8959092,54.2790643 64.2740552,53.6834503 L62.5328121,52.5753216 Z" id="Shape" fill="#F29D00"></path>
                        <path d="M60.1888519,55.8148343 C59.7679175,56.3278947 59.3254526,56.8349513 58.8734489,57.3220858 L60.3849428,58.7280897 C60.8651541,58.2103899 61.3355541,57.6714035 61.7829247,57.1261404 L60.1888519,55.8148343 Z" id="Shape" fill="#F29D00"></path>
                        <path d="M47.4737437,65.2863938 C46.8601251,65.5425146 46.230972,65.782807 45.6030452,66.0005848 L46.2782572,67.9526706 C46.9458382,67.7209747 47.615327,67.4655361 48.2677822,67.1931774 L47.4737437,65.2863938 Z" id="Shape" fill="#F29D00"></path>
                        <path d="M51.0646999,63.5202924 C50.4874651,63.8495517 49.8926517,64.1653021 49.2964756,64.4582651 L50.20607,66.3125146 C50.8398563,66.0008577 51.4724162,65.6651852 52.0860348,65.3150487 L51.0646999,63.5202924 Z" id="Shape" fill="#F29D00"></path>
                        <path d="M54.4125525,61.3288694 C53.87906,61.7264912 53.3273075,62.1123782 52.7721483,62.4757505 L53.9009993,64.2048733 C54.4910433,63.818577 55.0776806,63.408538 55.6444227,62.9860819 L54.4125525,61.3288694 Z" id="Shape" fill="#F29D00"></path>
                        <path d="M69.6467263,33.4408967 L67.5856603,33.5330019 C67.6075995,34.0258674 67.6187736,34.5259649 67.6187736,35.0195127 C67.6187736,35.1921248 67.6175472,35.3643275 67.6148218,35.5362573 L69.6776593,35.5683236 C69.680521,35.3857505 69.6818837,35.202768 69.6818837,35.0193762 C69.6817474,34.4955361 69.669892,33.9643275 69.6467263,33.4408967 Z" id="Shape" fill="#F29D00"></path>
                        <path d="M67.5236579,37.5373294 C67.473511,38.2003509 67.4022424,38.869922 67.3118962,39.5277583 L69.3556561,39.8092593 C69.4515893,39.1102144 69.5274911,38.3984795 69.5807722,37.6937037 L67.5236579,37.5373294 Z" id="Shape" fill="#F29D00"></path>
                        <path d="M65.9543861,45.3681871 C65.7452134,45.9980507 65.5135564,46.6300975 65.2656834,47.2467251 L67.1797154,48.0179532 C67.4432593,47.3621637 67.6897696,46.6897271 67.9121604,46.0197466 L65.9543861,45.3681871 Z" id="Shape" fill="#F29D00"></path>
                        <path d="M64.4642864,49.077232 C64.1800297,49.675848 63.8732885,50.274191 63.5523754,50.8553411 L65.3578012,51.8549903 C65.6990183,51.2369981 66.0253822,50.6007212 66.3276264,49.9640351 L64.4642864,49.077232 Z" id="Shape" fill="#F29D00"></path>
                        <path d="M66.9791277,41.5012671 C66.8485822,42.1528265 66.6962336,42.808616 66.5261701,43.4503509 L68.5201919,43.9803314 C68.7010206,43.2977973 68.8631805,42.6003899 69.0019022,41.9074854 L66.9791277,41.5012671 Z" id="Shape" fill="#F29D00"></path>
                        <path d="M7.16324357,52.4590643 L5.41750359,53.5596881 C5.79319676,54.1572125 6.1926007,54.7517349 6.60467764,55.3260624 L8.28037543,54.1210526 C7.89255435,53.5805653 7.51686118,53.021384 7.16324357,52.4590643 Z" id="Shape" fill="#F29D00"></path>
                        <path d="M18.5836616,63.4509747 L17.5546957,65.241501 C18.1655889,65.5935478 18.7954234,65.9311306 19.4263481,66.2449708 L20.3439824,64.3946784 C19.7506679,64.0993957 19.1583073,63.7820078 18.5836616,63.4509747 Z" id="Shape" fill="#F29D00"></path>
                        <path d="M15.2497085,61.2486355 L14.0108885,62.9006628 C14.5746327,63.3246199 15.1588171,63.7365692 15.747226,64.1253216 L16.8832992,62.4008382 C16.3296389,62.0350097 15.7800667,61.6474854 15.2497085,61.2486355 Z" id="Shape" fill="#F29D00"></path>
                        <path d="M12.2055991,58.65577 L10.7760028,60.1454191 C11.2841492,60.6343275 11.814235,61.1145029 12.3518155,61.5721637 L13.688749,59.9987329 C13.1827829,59.5678168 12.6839027,59.1158869 12.2055991,58.65577 Z" id="Shape" fill="#F29D00"></path>
                        <path d="M9.49643847,55.7116764 L7.89718749,57.0167057 C8.34237775,57.5638791 8.81086999,58.1049123 9.28930985,58.6249318 L10.806527,57.2250682 C10.3561585,56.7358869 9.91546512,56.2266472 9.49643847,55.7116764 Z" id="Shape" fill="#F29D00"></path>
                        <path d="M22.1581293,65.2284016 L21.3552334,67.1313645 C22.0040093,67.4059064 22.6698188,67.6635283 23.3342656,67.8976803 L24.0188802,65.9488694 C23.3942239,65.7286355 22.7680686,65.4862963 22.1581293,65.2284016 Z" id="Shape" fill="#F29D00"></path>
                        <path d="M29.8269302,67.4087719 L29.5106503,69.4503704 C30.2071203,69.5584405 30.9166721,69.6464522 31.6194104,69.7120858 L31.8107319,67.6550682 C31.1495555,67.5935283 30.4819745,67.5105653 29.8269302,67.4087719 Z" id="Shape" fill="#F29D00"></path>
                        <path d="M25.9235096,66.5544444 L25.360038,68.5417349 C26.0386568,68.7346784 26.7321289,68.9090643 27.4215129,69.0598441 L27.86207,67.0417154 C27.2137029,66.8999415 26.5615203,66.7360624 25.9235096,66.5544444 Z" id="Shape" fill="#F29D00"></path>
                        <path d="M35.8068153,67.7851072 C35.1465928,67.8032554 34.4708357,67.8017544 33.8062526,67.7803314 L33.7394809,69.8451267 C34.1195346,69.8574074 34.5047666,69.8636842 34.8849567,69.8636842 C35.2107754,69.8636842 35.5401372,69.8591813 35.8639119,69.8501754 L35.8068153,67.7851072 Z" id="Shape" fill="#F29D00"></path>
                        <path d="M39.7877729,67.4325146 C39.1327286,67.531306 38.4647388,67.6108577 37.8030174,67.6692593 L37.9842549,69.7270955 C38.6878109,69.6648733 39.3977715,69.5802729 40.0942415,69.4754776 L39.7877729,67.4325146 Z" id="Shape" fill="#F29D00"></path>
                        <path d="M43.6951453,66.5970175 C43.0565896,66.7752242 42.4037256,66.9361014 41.7544046,67.0748733 L42.1852867,69.0951852 C42.8757608,68.9475439 43.5701868,68.7765692 44.2492144,68.587037 L43.6951453,66.5970175 Z" id="Shape" fill="#F29D00"></path>
                        <path d="M55.2195365,21.4547953 L53.5081363,22.6083626 C55.7992241,26.0166667 57.0910526,29.9549513 57.2773321,34.055614 L35.9851912,34.055614 L35.9851912,23.4509552 L39.3548468,23.4509552 L39.3548468,21.3850682 L35.9851912,21.3850682 L35.9851912,12.7338596 C37.2336862,12.7910331 38.474959,12.9504094 39.6873428,13.2123977 L40.1227217,11.1930409 C38.4340783,10.8278947 36.6948793,10.642729 34.9536362,10.642729 C21.4923198,10.642729 10.5406665,21.6089864 10.5406665,35.0885575 C10.5406665,40.2422222 12.1429154,45.0276023 14.8730614,48.9742105 L14.8730614,49.0674074 L14.9376528,49.0674074 C19.06946,54.9815205 25.7448612,58.9874854 33.3613349,59.4808967 C33.9295759,59.6076608 34.5070832,59.6720663 35.0911314,59.6720663 C35.7131986,59.6720663 36.3274985,59.5974269 36.9315782,59.4537427 C49.4714447,58.4422222 59.3666058,47.9011501 59.3666058,35.0885575 C59.3664695,30.2053411 57.9325126,25.4907797 55.2195365,21.4547953 Z M28.7167481,13.5963743 C27.4760204,14.7800975 26.3359954,16.3200975 25.3357822,18.1911306 C24.8021534,19.1892788 24.3208519,20.2579727 23.8943305,21.3850682 L17.2959212,21.3850682 C20.1536148,17.7014035 24.1332097,14.9322417 28.7167481,13.5963743 Z M15.8698679,23.4509552 L23.1943175,23.4509552 C22.2179513,26.6822807 21.6555699,30.2938986 21.558819,34.055614 L12.6284413,34.055614 C12.8049094,30.1854191 13.9671462,26.5682066 15.8698679,23.4509552 Z M12.628305,36.121501 L21.5533683,36.121501 C21.6291337,39.9822807 22.1941043,43.691462 23.1943175,47.0016569 L16.0417029,47.0016569 C14.037461,43.8228655 12.8100876,40.1065887 12.628305,36.121501 Z M17.5136788,49.0674074 L23.8944667,49.0674074 C24.3208519,50.1945029 24.8021534,51.2630604 25.3359184,52.261345 C26.228343,53.9308382 27.2320992,55.3372515 28.3193882,56.4620273 C24.0171087,55.1201559 20.2697159,52.5081871 17.5136788,49.0674074 Z M33.9219448,57.4438012 C33.8403198,57.440117 33.7589673,57.4357505 33.6776148,57.4312476 C31.2574804,56.8320858 28.9809733,54.7031579 27.154426,51.2863938 C26.7788691,50.5838012 26.4315198,49.8420468 26.1122419,49.0674074 L33.9218086,49.0674074 L33.9218086,57.4438012 L33.9219448,57.4438012 Z M33.9219448,47.0015205 L25.3549961,47.0015205 C24.2964598,43.7404483 23.6966044,40.0196686 23.6166146,36.1213645 L33.9219448,36.1213645 L33.9219448,47.0015205 Z M33.9219448,34.055614 L23.6224742,34.055614 C23.7244032,30.2574659 24.321397,26.6352047 25.3548598,23.4509552 L33.9219448,23.4509552 L33.9219448,34.055614 Z M33.9220811,21.3852047 L26.1123782,21.3852047 C26.4316561,20.6105653 26.7788691,19.8686745 27.1545622,19.1662183 C29.0424306,15.6346979 31.4109191,13.4794347 33.9220811,12.9666472 L33.9220811,21.3852047 Z M35.9850549,36.121501 L46.5653757,36.121501 C46.4856584,40.0198051 45.8855305,43.7404483 44.8271305,47.0016569 L35.9849187,47.0016569 L35.9849187,36.121501 L35.9850549,36.121501 Z M36.5921326,57.4080507 C36.3904547,57.4227875 36.1882317,57.4345224 35.9851912,57.4436647 L35.9851912,49.067271 L44.0697483,49.067271 C43.7504705,49.8419103 43.4032575,50.5838012 43.0275643,51.2862573 C41.2232287,54.6618129 38.9795625,56.7798246 36.5921326,57.4080507 Z M41.9864705,56.3322612 C43.0262016,55.2295906 43.987987,53.8672515 44.8464806,52.261345 C45.3801094,51.2631969 45.8614109,50.1945029 46.2879323,49.0674074 L52.3935935,49.0674074 C49.722997,52.401345 46.1212756,54.9561404 41.9864705,56.3322612 Z M46.987809,47.0015205 C47.9880222,43.6913255 48.5528565,39.9821442 48.6287583,36.1213645 L57.2788311,36.1213645 C57.0971847,40.1064522 55.8696751,43.822729 53.8654331,47.0015205 L46.987809,47.0015205 Z" id="Shape" fill="#fff"></path>
                    </g>
                </g>
            </g>
        </g>
    </g>
</svg>