<?xml version="1.0" encoding="UTF-8"?>
<svg width="70px" height="70px" viewBox="0 0 70 70" version="1.1" xmlns="http://www.w3.org/2000/svg" xmlns:xlink="http://www.w3.org/1999/xlink">
    <!-- Generator: Sketch 52 (66869) - http://www.bohemiancoding.com/sketch -->
    <title>icon-suppliers</title>
    <desc>Created with Sketch.</desc>
    <g id="Design" stroke="none" stroke-width="1" fill="none" fill-rule="evenodd">
        <g id="Design-V.2.0" transform="translate(-666.000000, -1914.000000)" fill-rule="nonzero">
            <g id="Value-Proposition" transform="translate(0.000000, 1676.000000)">
                <g id="Suppliers" transform="translate(526.000000, 198.000000)">
                    <g id="icon-suppliers" transform="translate(140.000000, 40.000000)">
                        <path d="M30.233511,22.1234568 C28.3101946,22.1234568 26.745029,23.690729 26.745029,25.6166342 L29.0706837,25.6166342 C29.0706837,24.9750539 29.5916303,24.4522417 30.233511,24.4522417 C30.8753917,24.4522417 31.3963384,24.9750539 31.3963384,25.6166342 L33.721993,25.6166342 C33.721993,23.690729 32.1568274,22.1234568 30.233511,22.1234568 Z" id="Shape" fill="#f6f9fc"></path>
                        <path d="M39.5361298,22.1234568 C37.6128133,22.1234568 36.0476477,23.690729 36.0476477,25.6166342 L38.3733024,25.6166342 C38.3733024,24.9750539 38.8942491,24.4522417 39.5361298,24.4522417 C40.1780105,24.4522417 40.6989571,24.9750539 40.6989571,25.6166342 L43.0246118,25.6166342 C43.0246118,23.690729 41.4594462,22.1234568 39.5361298,22.1234568 Z" id="Shape" fill="#f6f9fc"></path>
                        <circle id="Oval-3" fill="#F29D00" cx="35" cy="58.1" r="3.5"></circle>
                        <path d="M34.8848204,53.5620533 C32.3196233,53.5620533 30.233511,55.6509734 30.233511,58.2196231 C30.233511,60.7882729 32.3196233,62.877193 34.8848204,62.877193 C37.4500175,62.877193 39.5361298,60.7882729 39.5361298,58.2196231 C39.5361298,55.6509734 37.4500175,53.5620533 34.8848204,53.5620533 Z M34.8848204,60.5484081 C33.6022218,60.5484081 32.5591657,59.503948 32.5591657,58.2196231 C32.5591657,56.9352982 33.6022218,55.8908382 34.8848204,55.8908382 C36.167419,55.8908382 37.2104751,56.9352982 37.2104751,58.2196231 C37.2104751,59.503948 36.167419,60.5484081 34.8848204,60.5484081 Z" id="Shape" fill="#f6f9fc"></path>
                        <path d="M48.1661645,17.5 L49.2161645,17.5 C51.3424608,17.5 53.0661645,19.2237037 53.0661645,21.35 L53.0661645,21.35 C53.0661645,23.4762963 51.3424608,25.2 49.2161645,25.2 L48.1661645,25.2 L48.1661645,17.5 Z" id="Rectangle-9" fill="#F29D00"></path>
                        <path d="M16.6661645,17.5 L17.7161645,17.5 C19.8424608,17.5 21.5661645,19.2237037 21.5661645,21.35 L21.5661645,21.35 C21.5661645,23.4762963 19.8424608,25.2 17.7161645,25.2 L16.6661645,25.2 L16.6661645,17.5 Z" id="Rectangle-9-Copy" fill="#F29D00" transform="translate(19.116165, 21.350000) scale(-1, 1) translate(-19.116165, -21.350000) "></path>
                        <path d="M62.7926767,67.5347628 L62.7926767,52.3976608 C62.7926767,42.7669708 54.9680115,34.9317739 45.3502665,34.9317739 L44.0839475,34.9317739 C44.4979141,34.567319 44.8874612,34.178412 45.2560775,33.7673814 L46.5130939,33.7673814 C49.7190089,33.7673814 52.3272306,31.1556491 52.3272306,27.9454191 L52.3272306,25.8937596 C53.7284375,24.9529305 54.6528853,23.3530552 54.6528853,21.5412606 C54.6528853,19.7224795 53.7214606,18.1202755 52.3132767,17.1806108 C52.1586206,7.68266147 44.4072135,0 34.8848204,0 C25.3624273,0 17.6110202,7.68266147 17.4563641,17.1806108 C16.0481802,18.1202755 15.1167555,19.7224795 15.1167555,21.5412606 C15.1167555,24.4301183 17.4645039,26.7810266 20.3494786,26.7810266 L21.141364,26.7810266 C21.6855672,30.0075582 23.3321307,32.8568265 25.6868561,34.9317739 L24.4193743,34.9317739 C14.8016293,34.9317739 6.97696408,42.7669708 6.97696408,52.3976608 L6.97696408,67.5347628 L0,67.5347628 L0,69.8635478 L8.13979143,69.8635478 L13.9539282,69.8635478 L55.8157126,69.8635478 L61.6298494,69.8635478 L69.7696408,69.8635478 L69.7696408,67.5347628 L62.7926767,67.5347628 Z M50.0015759,27.9454191 C50.0015759,29.7118025 48.680604,31.1603067 46.9793876,31.3908564 C47.785227,29.9877635 48.3503611,28.4332995 48.6282768,26.7810266 L49.4201622,26.7810266 C49.6190057,26.7810266 49.8085466,26.7437661 50.0015759,26.7216426 L50.0015759,27.9454191 Z M52.3272306,21.5412606 C52.3272306,23.1457934 51.0237011,24.4522417 49.4201622,24.4522417 L48.8387486,24.4522417 L48.8387486,18.6302794 L49.4201622,18.6302794 C51.0237011,18.6302794 52.3272306,19.9367277 52.3272306,21.5412606 Z M20.9308922,24.4522417 L20.3494786,24.4522417 C18.7459397,24.4522417 17.4424102,23.1457934 17.4424102,21.5412606 C17.4424102,19.9367277 18.7459397,18.6302794 20.3494786,18.6302794 L20.9308922,18.6302794 L20.9308922,24.4522417 Z M20.3494786,16.3014945 C20.1692403,16.3014945 19.9994675,16.3364263 19.8238806,16.3550565 C20.3959917,8.526846 26.9241044,2.32878493 34.8848204,2.32878493 C42.8455364,2.32878493 49.3736491,8.526846 49.9457602,16.3550565 C49.7701733,16.3364263 49.6004005,16.3014945 49.4201622,16.3014945 L48.6282768,16.3014945 C47.5166139,9.70404678 41.7850379,4.65756985 34.8848204,4.65756985 C27.9846029,4.65756985 22.2530269,9.70404678 21.141364,16.3014945 L20.3494786,16.3014945 Z M46.511931,18.6011696 C38.1198061,18.3054139 32.5591657,14.8692917 32.5591657,11.6439246 C32.5591657,11.00118 32.0393819,10.4795322 31.3963384,10.4795322 C30.7532948,10.4795322 30.233511,11.00118 30.233511,11.6439246 C30.233511,14.5537414 27.2287651,16.9651982 23.3239909,17.3925302 C23.9437779,11.5519376 28.8916083,6.98635478 34.8848204,6.98635478 C41.2861849,6.98635478 46.4956514,12.1946823 46.511931,18.6011696 Z M23.2565469,24.4522417 L23.2565469,19.7294659 C26.8880567,19.4139155 29.9695492,17.6603405 31.5079698,15.2046368 C33.9406046,18.4323327 39.6256675,20.7040624 46.5130939,20.9357765 L46.5130939,24.4522417 C46.5130939,27.0756179 45.6316707,29.4894035 44.1653454,31.4385965 L34.8848204,31.4385965 L34.8848204,33.7673814 L41.831551,33.7673814 C41.1640881,34.2680702 40.4442979,34.6988954 39.6768319,35.0482131 C36.6255729,36.4361689 33.142905,36.4361689 30.0904832,35.0482131 C26.0671006,33.2154594 23.2565469,29.1610448 23.2565469,24.4522417 Z M31.2905211,37.9382352 C32.4393945,38.2456348 33.6405951,38.4249513 34.8848204,38.4249513 C36.1290457,38.4249513 37.3302463,38.2456348 38.4791197,37.9382352 L34.8848204,45.1365094 L31.2905211,37.9382352 Z M33.0033657,46.5756985 L30.9521383,46.5756985 L26.3008289,37.2605588 L28.3520564,37.2605588 L33.0033657,46.5756985 Z M41.4175844,37.2605588 L43.4688119,37.2605588 L38.8175025,46.5756985 L36.766275,46.5756985 L41.4175844,37.2605588 Z M12.7911008,52.3976608 L12.7911008,67.5347628 L9.30261877,67.5347628 L9.30261877,52.3976608 C9.30261877,44.2876673 15.7097975,37.6669318 23.7181894,37.296655 L28.3520564,46.5756985 L18.6052375,46.5756985 C15.3993225,46.5756985 12.7911008,49.1874308 12.7911008,52.3976608 Z M54.6528853,67.5347628 L15.1167555,67.5347628 L15.1167555,52.3976608 C15.1167555,50.4717557 16.6819211,48.9044834 18.6052375,48.9044834 L30.233511,48.9044834 L34.8848204,48.9044834 L39.5361298,48.9044834 L51.1644032,48.9044834 C53.0877197,48.9044834 54.6528853,50.4717557 54.6528853,52.3976608 L54.6528853,67.5347628 Z M60.467022,67.5347628 L56.97854,67.5347628 L56.97854,52.3976608 C56.97854,49.1874308 54.3703182,46.5756985 51.1644032,46.5756985 L41.4175844,46.5756985 L46.0514514,37.296655 C54.0598433,37.6669318 60.467022,44.2876673 60.467022,52.3976608 L60.467022,67.5347628 Z" id="Shape" fill="#f6f9fc"></path>
                        <rect id="Rectangle-path" fill="#f6f9fc" x="50.0015759" y="57.0552307" width="2.32565469" height="8.15074724"></rect>
                        <rect id="Rectangle-path" fill="#f6f9fc" x="50.0015759" y="52.3976608" width="2.32565469" height="2.32878493"></rect>
                        <rect id="Rectangle-path" fill="#F29D00" x="60.467022" y="10.4795322" width="2.32565469" height="2.32878493"></rect>
                        <rect id="Rectangle-path" fill="#F29D00" x="60.467022" y="15.137102" width="2.32565469" height="2.32878493"></rect>
                        <rect id="Rectangle-path" fill="#F29D00" x="60.467022" y="19.7946719" width="2.32565469" height="2.32878493"></rect>
                        <rect id="Rectangle-path" fill="#F29D00" x="6.97696408" y="24.4522417" width="2.32565469" height="2.32878493"></rect>
                        <rect id="Rectangle-path" fill="#F29D00" x="6.97696408" y="29.1098116" width="2.32565469" height="2.32878493"></rect>
                        <rect id="Rectangle-path" fill="#F29D00" x="6.97696408" y="33.7673814" width="2.32565469" height="2.32878493"></rect>
                    </g>
                </g>
            </g>
        </g>
    </g>
</svg>