<?xml version="1.0" encoding="UTF-8"?>
<svg width="70px" height="70px" viewBox="0 0 70 70" version="1.1" xmlns="http://www.w3.org/2000/svg" xmlns:xlink="http://www.w3.org/1999/xlink">
    <!-- Generator: Sketch 52 (66869) - http://www.bohemiancoding.com/sketch -->
    <title>icon-customers</title>
    <desc>Created with Sketch.</desc>
    <g id="Design" stroke="none" stroke-width="1" fill="none" fill-rule="evenodd">
        <g id="Design-V.2.0" transform="translate(-1066.000000, -1914.000000)" fill-rule="nonzero">
            <g id="Value-Proposition" transform="translate(0.000000, 1676.000000)">
                <g id="Customers" transform="translate(926.000000, 198.000000)">
                    <g id="icon-customers" transform="translate(140.000000, 40.000000)">
                        <path d="M66.4991889,0 L3.27045191,0 C1.46734276,0 0,1.46931774 0,3.2748538 L0,39.2982456 L0,45.8479532 C0,47.6534893 1.46734276,49.122807 3.27045191,49.122807 L27.1502016,49.122807 L26.2584584,58.9473684 L18.5325608,58.9473684 C17.9307977,58.9473684 17.4424102,59.4353216 17.4424102,60.0389864 C17.4424102,60.6426511 17.9307977,61.1306043 18.5325608,61.1306043 L27.2537659,61.1306043 L42.5158749,61.1306043 L51.23708,61.1306043 C51.8388431,61.1306043 52.3272306,60.6426511 52.3272306,60.0389864 C52.3272306,59.4353216 51.8388431,58.9473684 51.23708,58.9473684 L43.5111824,58.9473684 L42.6194392,49.122807 L66.4991889,49.122807 C68.302298,49.122807 69.7696408,47.6534893 69.7696408,45.8479532 L69.7696408,39.2982456 L69.7696408,3.2748538 C69.7696408,1.46931774 68.302298,0 66.4991889,0 Z M28.4474809,58.9473684 L29.3392241,49.122807 L40.4304167,49.122807 L41.3221599,58.9473684 L28.4474809,58.9473684 Z M67.5893395,45.8479532 C67.5893395,46.4505263 67.0998619,46.9395712 66.4991889,46.9395712 L41.4257242,46.9395712 L28.3439166,46.9395712 L3.27045191,46.9395712 C2.66977891,46.9395712 2.18030127,46.4505263 2.18030127,45.8479532 L2.18030127,40.3898635 L67.5893395,40.3898635 L67.5893395,45.8479532 Z M67.5893395,38.2066277 L2.18030127,38.2066277 L2.18030127,3.2748538 C2.18030127,2.6722807 2.66977891,2.18323587 3.27045191,2.18323587 L66.4991889,2.18323587 C67.0998619,2.18323587 67.5893395,2.6722807 67.5893395,3.2748538 L67.5893395,38.2066277 Z" id="Shape" fill="#fff"></path>
                        <path d="M34.2819671,18.6721248 L26.1309108,14.5916569 C26.1636153,14.277271 26.1636153,14.2336062 26.1636153,14.1910331 C26.1636153,9.90643275 23.7696445,6.5497076 20.7128621,6.5497076 C17.6560797,6.5497076 15.2621089,9.90643275 15.2621089,14.1910331 C15.2621089,14.2336062 15.2621089,14.277271 15.2948134,14.5916569 L7.14375713,18.6721248 C6.77419606,18.8576998 6.54090382,19.2353996 6.54090382,19.6491228 L6.54090382,21.8323587 C6.54090382,22.4360234 7.02929131,22.9239766 7.63105446,22.9239766 L16.5910025,22.9239766 L17.2788876,25.6781287 L12.5203801,28.537076 C12.1922447,28.7346589 11.991657,29.0894347 11.991657,29.4736842 L11.991657,30.5653021 C11.991657,31.1689669 12.4800445,31.6569201 13.0818076,31.6569201 L17.4053451,31.6569201 C17.8697492,33.1076803 19.0100468,34.9317739 20.7161326,34.9317739 C22.4167676,34.9317739 23.555975,33.1065887 24.019289,31.6569201 L28.3439166,31.6569201 C28.9456797,31.6569201 29.4340672,31.1689669 29.4340672,30.5653021 L29.4340672,29.4736842 C29.4340672,29.0894347 29.2334795,28.7346589 28.9053441,28.5381676 L24.1468366,25.6792203 L24.8347217,22.9239766 L33.7946698,22.9239766 C34.3964329,22.9239766 34.8848204,22.4360234 34.8848204,21.8323587 L34.8848204,19.6491228 C34.8848204,19.2353996 34.6515282,18.8576998 34.2819671,18.6721248 Z M32.7045191,20.7407407 L23.983314,20.7407407 C23.4829349,20.7407407 23.0468746,21.0813255 22.9258679,21.5681871 L21.8357173,25.9346589 C21.7201613,26.4007797 21.920749,26.8876413 22.332826,27.1354386 L26.2246637,29.4736842 L23.1547995,29.4736842 C22.6031833,29.4736842 22.1355087,29.9092398 22.0700997,30.4583236 C21.942552,31.5117349 21.0824232,32.748538 20.7095917,32.748538 C20.3443912,32.748538 19.4831722,31.5117349 19.3501738,30.4102924 C19.2738633,29.8732164 18.8138197,29.4736842 18.2709247,29.4736842 L15.2010605,29.4736842 L19.0939884,27.134347 C19.5049752,26.8865497 19.7066531,26.3996881 19.5910971,25.9335673 L18.5009465,21.5670955 C18.3788496,21.0813255 17.9427893,20.7407407 17.4424102,20.7407407 L8.7212051,20.7407407 L8.7212051,20.3237427 L15.5193845,16.920078 L15.6491124,17.6994932 C15.7461358,18.2835088 16.2890308,18.6852242 16.876622,18.6011696 C17.4631231,18.5182066 17.8752,17.9822222 17.8065205,17.3938402 C17.4925571,14.6931774 17.4456806,14.2183236 17.4424102,14.1910331 C17.4424102,11.2327485 18.9402772,8.73294347 20.7128621,8.73294347 C22.485447,8.73294347 23.983314,11.2327485 23.9844042,14.1408187 C23.9789534,14.2183236 23.9331671,14.6931774 23.6181136,17.3927485 C23.5494341,17.9811306 23.961511,18.517115 24.5480121,18.600078 C25.1377835,18.688499 25.6784983,18.2824172 25.7755217,17.6984016 L25.9052496,16.9189864 L32.7045191,20.3237427 L32.7045191,20.7407407 Z" id="Shape" fill="#fff"></path>
                        <rect id="Rectangle-path" fill="#fff" x="19.6227115" y="13.0994152" width="2.18030127" height="2.18323587"></rect>
                        <circle id="Oval-2" fill="#F29D00" cx="49.7" cy="13.3" r="7"></circle>
                        <path d="M49.601854,5.45808967 C45.092991,5.45808967 41.4257242,9.1302924 41.4257242,13.6452242 C41.4257242,18.1601559 45.092991,21.8323587 49.601854,21.8323587 C54.110717,21.8323587 57.7779838,18.1601559 57.7779838,13.6452242 C57.7779838,9.1302924 54.110717,5.45808967 49.601854,5.45808967 Z M49.601854,19.6491228 C46.2954271,19.6491228 43.6060255,16.9550097 43.6060255,13.6452242 C43.6060255,10.3354386 46.2954271,7.64132554 49.601854,7.64132554 C52.9082809,7.64132554 55.5976825,10.3354386 55.5976825,13.6452242 C55.5976825,16.9550097 52.9082809,19.6491228 49.601854,19.6491228 Z" id="Shape" fill="#fff"></path>
                        <path d="M50.1469293,13.0994152 L50.1469293,10.9161793 L47.966628,10.9161793 L47.966628,14.1910331 C47.966628,14.7946979 48.4550155,15.2826511 49.0567787,15.2826511 L52.3272306,15.2826511 L52.3272306,13.0994152 L50.1469293,13.0994152 Z" id="Shape" fill="#fff"></path>
                        <rect id="Rectangle-path" fill="#fff" x="37.0651217" y="24.0155945" width="11.991657" height="2.18323587"></rect>
                        <rect id="Rectangle-path" fill="#fff" x="52.3272306" y="24.0155945" width="9.81135574" height="2.18323587"></rect>
                        <rect id="Rectangle-path" fill="#fff" x="37.0651217" y="32.748538" width="13.0818076" height="2.18323587"></rect>
                        <rect id="Rectangle-path" fill="#fff" x="53.4173812" y="32.748538" width="8.7212051" height="2.18323587"></rect>
                        <rect id="Rectangle-path" fill="#fff" x="37.0651217" y="28.3820663" width="5.45075319" height="2.18323587"></rect>
                        <rect id="Rectangle-path" fill="#fff" x="45.7863268" y="28.3820663" width="16.3522596" height="2.18323587"></rect>
                        <rect id="Rectangle-path" fill="#fff" x="31.6143685" y="42.5730994" width="6.54090382" height="2.18323587"></rect>
                        <path d="M46.8764774,63.3138402 L3.27045191,63.3138402 C1.46734276,63.3138402 0,64.7831579 0,66.588694 L0,68.7719298 C0,69.3755945 0.488387486,69.8635478 1.09015064,69.8635478 L49.0567787,69.8635478 C49.6585418,69.8635478 50.1469293,69.3755945 50.1469293,68.7719298 L50.1469293,66.588694 C50.1469293,64.7831579 48.6795866,63.3138402 46.8764774,63.3138402 Z M47.966628,67.6803119 L2.18030127,67.6803119 L2.18030127,66.588694 C2.18030127,65.9861209 2.66977891,65.497076 3.27045191,65.497076 L46.8764774,65.497076 C47.4771504,65.497076 47.966628,65.9861209 47.966628,66.588694 L47.966628,67.6803119 Z" id="Shape" fill="#fff"></path>
                        <path d="M66.4991889,63.3138402 L57.7779838,63.3138402 C55.9748746,63.3138402 54.5075319,64.7831579 54.5075319,66.588694 L54.5075319,68.7719298 C54.5075319,69.3755945 54.9959194,69.8635478 55.5976825,69.8635478 L68.6794902,69.8635478 C69.2812533,69.8635478 69.7696408,69.3755945 69.7696408,68.7719298 L69.7696408,66.588694 C69.7696408,64.7831579 68.302298,63.3138402 66.4991889,63.3138402 Z M67.5893395,67.6803119 L56.6878331,67.6803119 L56.6878331,66.588694 C56.6878331,65.9861209 57.1773108,65.497076 57.7779838,65.497076 L66.4991889,65.497076 C67.0998619,65.497076 67.5893395,65.9861209 67.5893395,66.588694 L67.5893395,67.6803119 Z" id="Shape" fill="#fff"></path>
                        <rect id="Rectangle-path" fill="#F29D00" x="58.8681344" y="52.3976608" width="2.18030127" height="2.18323587"></rect>
                        <rect id="Rectangle-path" fill="#F29D00" x="63.228737" y="52.3976608" width="2.18030127" height="2.18323587"></rect>
                        <rect id="Rectangle-path" fill="#F29D00" x="54.5075319" y="52.3976608" width="2.18030127" height="2.18323587"></rect>
                        <rect id="Rectangle-path" fill="#F29D00" x="50.1469293" y="52.3976608" width="2.18030127" height="2.18323587"></rect>
                        <rect id="Rectangle-path" fill="#F29D00" x="13.0818076" y="52.3976608" width="2.18030127" height="2.18323587"></rect>
                        <rect id="Rectangle-path" fill="#F29D00" x="17.4424102" y="52.3976608" width="2.18030127" height="2.18323587"></rect>
                        <rect id="Rectangle-path" fill="#F29D00" x="8.7212051" y="52.3976608" width="2.18030127" height="2.18323587"></rect>
                        <rect id="Rectangle-path" fill="#F29D00" x="4.36060255" y="52.3976608" width="2.18030127" height="2.18323587"></rect>
                        <rect id="Rectangle-path" fill="#fff" x="33.7946698" y="52.3976608" width="2.18030127" height="2.18323587"></rect>
                    </g>
                </g>
            </g>
        </g>
    </g>
</svg>