<?xml version="1.0" encoding="UTF-8"?>
<svg width="33px" height="32px" viewBox="0 0 33 32" version="1.1" xmlns="http://www.w3.org/2000/svg" xmlns:xlink="http://www.w3.org/1999/xlink">
    <!-- Generator: Sketch 52 (66869) - http://www.bohemiancoding.com/sketch -->
    <title>tech_2</title>
    <desc>Created with Sketch.</desc>
    <g id="Design" stroke="none" stroke-width="1" fill="none" fill-rule="evenodd">
        <g id="Design-V.2.0" transform="translate(-532.000000, -2621.000000)" fill="#ffc107" fill-rule="nonzero">
            <g id="Our-Technology" transform="translate(134.000000, 2518.000000)">
                <g id="2" transform="translate(398.000000, 103.000000)">
                    <g id="tech_2">
                        <path d="M31.3936867,0 L0.625372245,0 C0.280041691,0 0,0.2798125 0,0.625 L0,23.625 C0,23.9701875 0.280041691,24.25 0.625372245,24.25 L3.66599464,24.25 C4.01132519,24.25 4.29136689,23.9701875 4.29136689,23.625 C4.29136689,23.2798125 4.01132519,23 3.66599464,23 L1.25074449,23 L1.25074449,19.7604375 L30.7683145,19.7604375 L30.7683145,23 L8.3111346,23 C7.96580405,23 7.68576236,23.2798125 7.68576236,23.625 C7.68576236,23.9701875 7.96580405,24.25 8.3111346,24.25 L12.3198332,24.25 L12.3198332,28.246125 L9.67244491,28.246125 C9.32711435,28.246125 9.04707266,28.5259375 9.04707266,28.871125 L9.04707266,31.375 C9.04707266,31.7201875 9.32711435,32 9.67244491,32 L22.3466141,32 C22.6919446,32 22.9719863,31.7201875 22.9719863,31.375 L22.9719863,28.8710625 C22.9719863,28.525875 22.6919446,28.2460625 22.3466141,28.2460625 L19.5741513,28.2460625 L19.5741513,24.25 L31.3936867,24.25 C31.7390173,24.25 32.019059,23.9701875 32.019059,23.625 L32.019059,0.625 C32.019059,0.2798125 31.7390173,0 31.3936867,0 Z M13.5705777,24.25 L18.3234068,24.25 L18.3234068,28.246125 L13.5705777,28.246125 L13.5705777,24.25 Z M21.7212418,29.4960625 L21.7212418,30.75 L10.2978172,30.75 L10.2978172,29.4960625 L21.7212418,29.4960625 Z M30.7683145,18.5104375 L1.25074449,18.5104375 L1.25074449,1.25 L30.7683145,1.25 L30.7683145,18.5104375 Z" id="Shape"></path>
                        <path d="M6.4307028,23.183125 C6.31438356,23.066875 6.15303752,23 5.98856462,23 C5.82409172,23 5.66274568,23.066875 5.54642644,23.183125 C5.43016974,23.299375 5.36319238,23.460625 5.36319238,23.625 C5.36319238,23.789375 5.43010721,23.950625 5.54642644,24.066875 C5.66274568,24.183125 5.82409172,24.25 5.98856462,24.25 C6.15303752,24.25 6.31438356,24.183125 6.4307028,24.066875 C6.5469595,23.950625 6.61393687,23.789375 6.61393687,23.625 C6.61393687,23.460625 6.54702204,23.299375 6.4307028,23.183125 Z" id="Shape"></path>
                        <path d="M16.4516051,20.9425 C16.3353484,20.82625 16.1740024,20.759375 16.0095295,20.759375 C15.8450566,20.759375 15.6837105,20.82625 15.5673913,20.9425 C15.4510721,21.05875 15.3841572,21.22 15.3841572,21.384375 C15.3841572,21.549375 15.4510095,21.71 15.5673913,21.826875 C15.6837105,21.943125 15.8450566,22.01 16.0095295,22.01 C16.1740024,22.01 16.3353484,21.943125 16.4516051,21.826875 C16.5679244,21.71 16.6349017,21.549375 16.6349017,21.384375 C16.6349017,21.22 16.5679869,21.05875 16.4516051,20.9425 Z" id="Shape"></path>
                        <path d="M9.13043478,5.253875 C8.78510423,5.253875 8.50506254,5.5336875 8.50506254,5.878875 L8.50506254,6.66275 C8.50506254,7.007875 8.78510423,7.28775 9.13043478,7.28775 C9.47576534,7.28775 9.75580703,7.0079375 9.75580703,6.66275 L9.75580703,5.878875 C9.75580703,5.5336875 9.47576534,5.253875 9.13043478,5.253875 Z" id="Shape"></path>
                        <path d="M15.4466945,5.874875 L9.44312091,2.41075 C9.24963073,2.299125 9.01123883,2.299125 8.81774866,2.41075 L2.8141751,5.874875 C2.62068493,5.9865 2.50148898,6.1928125 2.50148898,6.416125 L2.50148898,13.3443125 C2.50148898,13.567625 2.62068493,13.7739375 2.8141751,13.8855625 L8.81774866,17.3496875 C8.91449375,17.4055 9.022433,17.4334375 9.13043478,17.4334375 C9.23843657,17.4334375 9.34637582,17.4055 9.44312091,17.3496875 L15.4466945,13.8855625 C15.6401846,13.7739375 15.7593806,13.567625 15.7593806,13.3443125 L15.7593806,6.416125 C15.7593806,6.1928125 15.6401846,5.9865 15.4466945,5.874875 Z M8.50506254,15.725875 L4.37397856,13.3421875 C4.62950566,13.1565 4.70867778,12.80425 4.54720667,12.52475 C4.38579809,12.24525 4.0409053,12.137625 3.75223347,12.2659375 L3.75223347,7.4990625 L7.87700119,9.88175 L7.65887135,10.007625 C7.35975581,10.1801875 7.2572573,10.5624375 7.42998511,10.861375 C7.54580405,11.061875 7.75599166,11.1739375 7.97218285,11.1739375 C8.07824598,11.1739375 8.18574747,11.1469375 8.2842436,11.090125 L8.50506254,10.9626875 L8.50506254,15.725875 Z M9.13043478,7.934125 C8.78510423,7.934125 8.50506254,8.2139375 8.50506254,8.559125 L8.50506254,8.8008125 L4.37716796,6.4163125 L8.50762656,4.033 C8.53345444,4.3545 8.80217689,4.6074375 9.13043478,4.6074375 C9.45869267,4.6074375 9.72741513,4.3545 9.753243,4.0330625 L13.8837016,6.416375 L9.75580703,8.8008125 L9.75580703,8.559125 C9.75580703,8.2139375 9.47576534,7.934125 9.13043478,7.934125 Z M14.5086361,12.2659375 C14.2199017,12.1376875 13.875134,12.24525 13.7136629,12.52475 C13.5521918,12.80425 13.6313639,13.1565 13.886891,13.34225 L9.75580703,15.725875 L9.75580703,10.96275 L9.97662597,11.0901875 C10.0751221,11.1470625 10.1826236,11.174 10.2886867,11.174 C10.5048154,11.174 10.7150655,11.0619375 10.8308845,10.8614375 C11.0036123,10.5625 10.9011138,10.18025 10.6019982,10.0076875 L10.3838684,9.8818125 L14.5086361,7.4990625 L14.5086361,12.2659375 Z" id="Shape"></path>
                        <path d="M12.9245682,11.34775 L12.2453514,10.9558125 C11.9461733,10.7831875 11.5638207,10.8856875 11.3910929,11.1845625 C11.2183651,11.4835 11.3208636,11.86575 11.6199792,12.0383125 L12.2991959,12.43025 C12.3976921,12.4870625 12.5051936,12.5140625 12.6112567,12.5140625 C12.8273853,12.5140625 13.037573,12.402 13.1534544,12.2015 C13.3261823,11.902625 13.2236837,11.520375 12.9245682,11.34775 Z" id="Shape"></path>
                        <path d="M6.86977665,11.184625 C6.69711138,10.88575 6.31463371,10.7833125 6.01551817,10.955875 L5.33630137,11.3478125 C5.03718582,11.520375 4.93468731,11.902625 5.10741513,12.2015625 C5.22323407,12.4020625 5.43342168,12.514125 5.64961286,12.514125 C5.755676,12.514125 5.86324002,12.487125 5.96167362,12.4303125 L6.64089041,12.038375 C6.94000596,11.8658125 7.04250447,11.4835625 6.86977665,11.184625 Z" id="Shape"></path>
                        <path d="M19.3865396,4.5625 C19.0412091,4.5625 18.7611674,4.8423125 18.7611674,5.1875 L18.7611674,17.1988125 C18.7611674,17.544 19.0412091,17.8238125 19.3865396,17.8238125 C19.7318702,17.8238125 20.0119119,17.544 20.0119119,17.1988125 L20.0119119,5.1875 C20.0119119,4.8423125 19.7318702,4.5625 19.3865396,4.5625 Z" id="Shape"></path>
                        <path d="M19.8286152,2.575625 C19.7123585,2.459375 19.5510125,2.393125 19.3865396,2.393125 C19.2220667,2.393125 19.0607207,2.459375 18.9444014,2.575625 C18.8280822,2.691875 18.7611674,2.853125 18.7611674,3.018125 C18.7611674,3.1825 18.8280197,3.34375 18.9444014,3.46 C19.0607832,3.57625 19.2220667,3.643125 19.3865396,3.643125 C19.5510125,3.643125 19.7123585,3.57625 19.8286152,3.46 C19.9449345,3.34375 20.0119119,3.1825 20.0119119,3.018125 C20.0119119,2.853125 19.944997,2.6925 19.8286152,2.575625 Z" id="Shape"></path>
                        <path d="M28.3197945,12.2255625 L25.6932311,10.771125 C25.5046188,10.6666875 25.2756075,10.6666875 25.0870578,10.771125 L22.4604943,12.2255625 C22.261626,12.3356875 22.13824,12.545 22.13824,12.77225 L22.13824,15.6810625 C22.13824,15.9083125 22.2616885,16.117625 22.4604943,16.22775 L25.0870578,17.682125 C25.1813639,17.7343125 25.2858011,17.7604375 25.3901757,17.7604375 C25.4945503,17.7604375 25.5989875,17.734375 25.6932936,17.682125 L28.3198571,16.22775 C28.5187254,16.117625 28.6421114,15.9083125 28.6421114,15.6810625 L28.6421114,12.77225 C28.6420488,12.545 28.5186004,12.3356875 28.3197945,12.2255625 Z M23.388922,13.1404375 L24.7647409,12.378625 L24.7647409,13.858375 L23.388922,14.6201875 L23.388922,13.1404375 Z M25.3901132,16.420875 L24.0539428,15.681 L25.3901132,14.941125 L26.7262835,15.681 L25.3901132,16.420875 Z M27.3913043,14.6201875 L26.0154854,13.858375 L26.0154854,12.378625 L27.3913043,13.1404375 L27.3913043,14.6201875 Z" id="Shape"></path>
                        <path d="M28.3197945,4.408 L25.6932311,2.9535625 C25.5046188,2.849125 25.2756075,2.849125 25.0870578,2.9535625 L22.4604943,4.408 C22.261626,4.518125 22.13824,4.7274375 22.13824,4.9546875 L22.13824,7.8635 C22.13824,8.09075 22.2616885,8.3000625 22.4604943,8.4101875 L25.0870578,9.8645625 C25.1813639,9.91675 25.2858011,9.942875 25.3901757,9.942875 C25.4945503,9.942875 25.5989875,9.9168125 25.6932936,9.8645625 L28.3198571,8.4101875 C28.5187254,8.3000625 28.6421114,8.09075 28.6421114,7.8635 L28.6421114,4.9546875 C28.6420488,4.7274375 28.5186004,4.518125 28.3197945,4.408 Z M24.7647409,8.2570625 L23.388922,7.49525 L23.388922,6.0155 L24.7647409,6.7773125 L24.7647409,8.2570625 Z M25.3901132,5.6945625 L24.0539428,4.9546875 L25.3901132,4.2148125 L26.7262835,4.9546875 L25.3901132,5.6945625 Z M27.3913043,7.49525 L26.0154854,8.2570625 L26.0154854,6.7773125 L27.3913043,6.0155 L27.3913043,7.49525 Z" id="Shape"></path>
                    </g>
                </g>
            </g>
        </g>
    </g>
</svg>