<?xml version="1.0" encoding="UTF-8"?>
<svg width="33px" height="32px" viewBox="0 0 33 32" version="1.1" xmlns="http://www.w3.org/2000/svg" xmlns:xlink="http://www.w3.org/1999/xlink">
    <!-- Generator: Sketch 52 (66869) - http://www.bohemiancoding.com/sketch -->
    <title>tech_3</title>
    <desc>Created with Sketch.</desc>
    <g id="Design" stroke="none" stroke-width="1" fill="none" fill-rule="evenodd">
        <g id="Design-V.2.0" transform="translate(-932.000000, -2621.000000)" fill="#377dff" fill-rule="nonzero">
            <g id="Our-Technology" transform="translate(134.000000, 2518.000000)">
                <g id="3" transform="translate(798.000000, 103.000000)">
                    <g id="tech_3">
                        <g id="bar-chart" transform="translate(0.896367, 0.000000)">
                            <path d="M5.49306698,20.1487871 L1.62373678,20.1487871 C0.794594595,20.1487871 0.0345475911,20.838814 0.0345475911,21.7358491 L0.0345475911,30.361186 C0.0345475911,31.1892183 0.725499412,31.948248 1.62373678,31.948248 L5.49306698,31.948248 C6.32220917,31.948248 7.08225617,31.258221 7.08225617,30.361186 L7.08225617,21.7358491 C7.08225617,20.9078167 6.39130435,20.1487871 5.49306698,20.1487871 Z M5.63125734,30.361186 C5.63125734,30.4301887 5.56216216,30.5681941 5.4239718,30.5681941 L1.5546416,30.5681941 C1.48554642,30.5681941 1.34735605,30.4991914 1.34735605,30.361186 L1.34735605,21.7358491 C1.34735605,21.6668464 1.41645123,21.528841 1.5546416,21.528841 L5.4239718,21.528841 C5.56216216,21.528841 5.63125734,21.5978437 5.63125734,21.7358491 L5.63125734,30.361186 Z M13.7844888,10.9714286 C14.6827262,10.9714286 15.373678,11.7304582 15.373678,12.5584906 L15.373678,30.2921833 C15.373678,31.1892183 14.613631,31.8792453 13.7844888,31.8792453 L9.91515864,31.8792453 C9.01692127,31.8792453 8.32596945,31.1202156 8.32596945,30.2921833 L8.32596945,12.5584906 C8.32596945,11.6614555 9.08601645,10.9714286 9.91515864,10.9714286 L13.7844888,10.9714286 Z M13.9226792,30.2921833 L13.9226792,12.5584906 C13.9226792,12.4204852 13.853584,12.3514825 13.7153937,12.3514825 L9.84606345,12.3514825 C9.70787309,12.3514825 9.63877791,12.4894879 9.63877791,12.5584906 L9.63877791,30.2921833 C9.63877791,30.4301887 9.77696827,30.4991914 9.84606345,30.4991914 L13.7153937,30.4991914 C13.853584,30.4991914 13.9226792,30.361186 13.9226792,30.2921833 Z M22.0759107,15.5256065 C22.9741481,15.5256065 23.6650999,16.2846361 23.6650999,17.1126685 L23.6650999,30.361186 C23.6650999,31.258221 22.9050529,31.948248 22.0759107,31.948248 L18.2065805,31.948248 C17.3083431,31.948248 16.6173913,31.1892183 16.6173913,30.361186 L16.6173913,17.1816712 C16.6173913,16.2846361 17.3774383,15.5946092 18.2065805,15.5946092 L18.2065805,15.5256065 L22.0759107,15.5256065 Z M22.2831962,30.2921833 L22.2831962,17.1126685 C22.2831962,17.0436658 22.2141011,16.9746631 22.0759107,16.9056604 L18.2065805,16.9056604 C18.0683901,16.9056604 17.9992949,17.0436658 17.9992949,17.1126685 L17.9992949,30.2921833 C17.9992949,30.4301887 18.1374853,30.4991914 18.2065805,30.4991914 L22.0759107,30.4991914 C22.2141011,30.4991914 22.2831962,30.361186 22.2831962,30.2921833 Z M30.3673325,7.17628032 C31.2655699,7.17628032 31.9565217,7.93530997 31.9565217,8.76334232 L31.9565217,30.2921833 C31.9565217,31.1892183 31.1964747,31.8792453 30.3673325,31.8792453 L26.4980024,31.8792453 C25.6688602,31.8792453 24.9779083,31.1892183 24.9088132,30.2921833 L24.9088132,8.76334232 C24.9088132,7.86630728 25.6688602,7.17628032 26.4980024,7.17628032 L30.3673325,7.17628032 Z M30.6437133,30.2921833 L30.6437133,8.76334232 C30.6437133,8.62533693 30.5055229,8.55633423 30.4364277,8.55633423 L26.5670975,8.55633423 C26.4289072,8.55633423 26.359812,8.69433962 26.359812,8.76334232 L26.359812,30.2921833 C26.359812,30.4301887 26.4980024,30.4991914 26.5670975,30.4991914 L30.4364277,30.4991914 C30.5746181,30.4991914 30.6437133,30.361186 30.6437133,30.2921833 Z M28.4326675,-2.7000624e-13 C29.3309048,-2.7000624e-13 30.0909518,0.75902965 30.0909518,1.65606469 C30.0909518,2.55309973 29.3309048,3.31212938 28.4326675,3.31212938 C28.2253819,3.31212938 28.0180964,3.31212938 27.8108108,3.17412399 L21.7304348,8.76334232 C21.7304348,8.9703504 21.79953,9.1083558 21.79953,9.31536388 C21.79953,10.2123989 21.039483,10.9714286 20.1412456,10.9714286 C19.2430082,10.9714286 18.4829612,10.2123989 18.4829612,9.31536388 C18.4829612,9.24636119 18.4829612,9.24636119 18.4829612,9.17735849 L12.8171563,6.14123989 C12.5407756,6.34824798 12.1952996,6.48625337 11.7807286,6.48625337 C11.6425382,6.48625337 11.5043478,6.48625337 11.3661575,6.41725067 L5.00940071,14.0075472 C5.07849589,14.2145553 5.14759107,14.4215633 5.14759107,14.6975741 C5.14759107,15.5946092 4.38754407,16.3536388 3.4893067,16.3536388 C2.59106933,16.3536388 1.83102233,15.5946092 1.83102233,14.6975741 C1.83102233,13.8005391 2.59106933,13.0415094 3.4893067,13.0415094 C3.62749706,13.0415094 3.76568743,13.0415094 3.90387779,13.1105121 L10.2606345,5.52021563 C10.1915394,5.31320755 10.1224442,5.10619946 10.1224442,4.83018868 C10.1224442,3.93315364 10.8824912,3.17412399 11.7807286,3.17412399 C12.6789659,3.17412399 13.4390129,3.93315364 13.4390129,4.83018868 C13.4390129,4.89919137 13.4390129,4.89919137 13.4390129,4.96819407 L19.1048179,8.00431267 C19.3811986,7.79730458 19.7266745,7.65929919 20.1412456,7.65929919 C20.3485311,7.65929919 20.6249119,7.65929919 20.8321974,7.79730458 L26.8434783,2.20808625 C26.8434783,2.00107817 26.7743831,1.86307278 26.7743831,1.65606469 C26.7743831,0.75902965 27.5344301,-2.7000624e-13 28.4326675,-2.7000624e-13 Z" id="Combined-Shape"></path>
                        </g>
                    </g>
                </g>
            </g>
        </g>
    </g>
</svg>