<?xml version="1.0" encoding="UTF-8"?>
<svg width="32px" height="32px" viewBox="0 0 32 32" version="1.1" xmlns="http://www.w3.org/2000/svg" xmlns:xlink="http://www.w3.org/1999/xlink">
    <!-- Generator: Sketch 52 (66869) - http://www.bohemiancoding.com/sketch -->
    <title>tech_1</title>
    <desc>Created with Sketch.</desc>
    <g id="Design" stroke="none" stroke-width="1" fill="none" fill-rule="evenodd">
        <g id="Design-V.2.0" transform="translate(-134.000000, -2621.000000)" fill="#de4437" fill-rule="nonzero">
            <g id="Our-Technology" transform="translate(134.000000, 2518.000000)">
                <g id="1" transform="translate(0.000000, 103.000000)">
                    <g id="tech_1">
                        <path d="M22.3749434,7.0519375 C21.8624509,5.763375 21.0010006,4.652625 19.8838356,3.8398125 C18.797439,3.0495 17.5165515,2.5714375 16.1796307,2.4575 C15.8345503,2.4283125 15.5327457,2.68325 15.5034783,3.0270625 C15.4741483,3.371 15.7293002,3.6735 16.07338,3.7028125 C18.3869446,3.8999375 20.3562418,5.360125 21.2128142,7.513625 C21.3103097,7.758625 21.5453871,7.907875 21.7940351,7.907875 C21.8708934,7.907875 21.9490649,7.893625 22.02486,7.8635 C22.3458011,7.736125 22.5025819,7.37275 22.3749434,7.0519375 Z" id="Shape"></path>
                        <path d="M13.6890232,3.295625 C13.5632609,2.9741875 13.20067,2.8151875 12.8790411,2.94075 L12.8551519,2.9501875 C12.5340858,3.0774375 12.3769923,3.4406875 12.504318,3.7614375 C12.601626,4.00675 12.8369535,4.15625 13.0857892,4.15625 C13.1624598,4.15625 13.2405063,4.1420625 13.3161138,4.1120625 L13.3338743,4.1050625 C13.6556284,3.9795625 13.8146605,3.6171875 13.6890232,3.295625 Z" id="Shape"></path>
                        <path d="M16.4419119,10.059125 C16.3255926,9.942875 16.1642466,9.876 15.9997737,9.876 C15.8353008,9.876 15.6739547,9.942875 15.5576355,10.059125 C15.4413163,10.175375 15.3744014,10.336625 15.3744014,10.501 C15.3744014,10.665375 15.4413163,10.826625 15.5576355,10.942875 C15.6739547,11.059125 15.8353008,11.126 15.9997737,11.126 C16.1642466,11.126 16.3255926,11.059125 16.4419119,10.942875 C16.5582311,10.826625 16.6251459,10.665375 16.6251459,10.501 C16.6251459,10.336625 16.5582311,10.175375 16.4419119,10.059125 Z" id="Shape"></path>
                        <path d="M29.8929184,24.374625 C29.5340798,24.374625 29.1960036,24.46425 28.8992019,24.6218125 L27.2315217,22.955125 L27.2315217,19.6974375 L27.5170042,19.6974375 C29.9984187,19.6974375 32.0171203,17.681 32.0171203,15.2024375 C32.0171203,13.5339375 31.1091423,12.033125 29.6660334,11.252625 C29.683919,11.0900625 29.6929244,10.927 29.6929244,10.7646875 C29.6929244,8.28775 27.6768493,6.272375 25.1977487,6.2696875 C24.459059,4.509375 23.249589,3.00025 21.6787165,1.885125 C19.942433,0.6524375 17.8952144,0.0009375 15.7584425,0.0009375 C13.3889071,0.0009375 11.0787195,0.829 9.25319535,2.3326875 C7.58732877,3.7049375 6.39305539,5.5776875 5.85273377,7.649 C2.60917808,7.7441875 0,10.409375 0,13.671875 C0,16.568125 2.05653663,18.9934375 4.78753722,19.5680625 L4.78753722,22.955125 L3.11985706,24.6218125 C2.82305539,24.4643125 2.48497915,24.374625 2.12614056,24.374625 C0.953755211,24.374625 0,25.327875 0,26.4995 C0,27.6711875 0.953755211,28.624375 2.12614056,28.624375 C3.29852591,28.624375 4.25228112,27.6711875 4.25228112,26.4995 C4.25228112,26.1405 4.16241513,25.80225 4.0044461,25.505375 L5.85504765,23.655875 C5.97230494,23.5386875 6.03821918,23.3796875 6.03821918,23.2139375 L6.03821918,19.6973125 L9.8802561,19.6973125 L9.8802561,26.32975 L8.21257594,27.9964375 C7.91577427,27.8389375 7.57769803,27.74925 7.21885944,27.74925 C6.04647409,27.74925 5.09271888,28.7024375 5.09271888,29.874125 C5.09271888,31.0458125 6.04647409,31.999 7.21885944,31.999 C8.39124479,31.999 9.345,31.0458125 9.345,29.874125 C9.345,29.515125 9.25513401,29.176875 9.09716498,28.88 L10.9477665,27.0305 C11.0650238,26.9133125 11.1309381,26.7543125 11.1309381,26.5885625 L11.1309381,19.6973125 L15.3743389,19.6973125 L15.3743389,24.468375 C14.5062597,24.7359375 13.873508,25.545125 13.873508,26.4993125 C13.873508,27.671 14.8272633,28.6241875 15.9996486,28.6241875 C17.1720339,28.6241875 18.1257892,27.671 18.1257892,26.4993125 C18.1257892,25.545125 17.4931001,24.735875 16.6249583,24.468375 L16.6249583,19.6973125 L20.8861197,19.6973125 L20.8861197,26.5885625 C20.8861197,26.7543125 20.9520339,26.9133125 21.0692912,27.0305 L22.9198928,28.88 C22.7619238,29.176875 22.6720578,29.515125 22.6720578,29.874125 C22.6720578,31.0458125 23.625813,31.999 24.7981983,31.999 C25.9705837,31.999 26.9243389,31.0458125 26.9243389,29.874125 C26.9243389,28.7024375 25.9705837,27.74925 24.7981983,27.74925 C24.4393597,27.74925 24.1012835,27.838875 23.8044818,27.9964375 L22.1368017,26.32975 L22.1368017,19.697375 L25.9807772,19.697375 L25.9807772,23.214 C25.9807772,23.37975 26.0466915,23.53875 26.1639488,23.6559375 L28.0145503,25.5054375 C27.8565813,25.8023125 27.7667153,26.1405625 27.7667153,26.4995625 C27.7667153,27.67125 28.7204705,28.6244375 29.8928559,28.6244375 C31.0652412,28.6244375 32.0189964,27.67125 32.0189964,26.4995625 C32.019059,25.327875 31.0653038,24.374625 29.8929184,24.374625 Z M2.12614056,27.3744375 C1.64335319,27.3744375 1.25068195,26.9819375 1.25068195,26.4995 C1.25068195,26.0170625 1.64341572,25.6245625 2.12614056,25.6245625 C2.6088654,25.6245625 3.00159917,26.0170625 3.00159917,26.4995 C3.00159917,26.9819375 2.6088654,27.3744375 2.12614056,27.3744375 Z M7.21885944,30.749125 C6.7361346,30.749125 6.34340083,30.356625 6.34340083,29.8741875 C6.34340083,29.39175 6.7361346,28.99925 7.21885944,28.99925 C7.70164681,28.99925 8.09431805,29.39175 8.09431805,29.8741875 C8.09431805,30.356625 7.70164681,30.749125 7.21885944,30.749125 Z M24.7982609,28.99925 C25.2809857,28.99925 25.6737195,29.3918125 25.6737195,29.8741875 C25.6737195,30.3566875 25.2809857,30.749125 24.7982609,30.749125 C24.3154735,30.749125 23.9228023,30.356625 23.9228023,29.8741875 C23.9228023,29.39175 24.3154735,28.99925 24.7982609,28.99925 Z M16.8751697,26.499375 C16.8751697,26.981875 16.482436,27.3743125 15.9997111,27.3743125 C15.5169238,27.3743125 15.1242525,26.9818125 15.1242525,26.499375 C15.1242525,26.0169375 15.5169863,25.6244375 15.9997111,25.6244375 C16.482436,25.6244375 16.8751697,26.0169375 16.8751697,26.499375 Z M26.6062746,15.375125 C26.2608815,15.375125 25.9809649,15.6549375 25.9809649,16.0000625 L25.9809649,18.4475 L22.1368642,18.4475 L22.1368642,18.4474375 L22.1368642,14.4296875 C22.1368642,14.0845 21.8568851,13.80475 21.5115545,13.80475 C21.1661614,13.80475 20.8862448,14.0845625 20.8862448,14.4296875 L20.8862448,18.4474375 L16.6250834,18.4474375 L16.6250834,12.8751875 C16.6250834,12.53 16.3451042,12.25025 15.9997737,12.25025 C15.6543806,12.25025 15.374464,12.5300625 15.374464,12.8751875 L15.374464,18.4474375 L11.1310631,18.4474375 L11.1310631,14.4296875 C11.1310631,14.0845 10.851084,13.80475 10.5057534,13.80475 C10.1603603,13.80475 9.88044372,14.0845625 9.88044372,14.4296875 L9.88044372,18.4474375 L6.03821918,18.4474375 L6.03821918,16 C6.03821918,15.6548125 5.75824002,15.3750625 5.41290947,15.3750625 C5.06751638,15.3750625 4.78759976,15.654875 4.78759976,16 L4.78759976,18.28225 C2.75276355,17.7336875 1.25068195,15.8750625 1.25068195,13.6718125 C1.25068195,11.0385625 3.39583383,8.8961875 6.03252829,8.8961875 L6.03259083,8.8961875 C6.0926891,8.8961875 6.15259976,8.8980625 6.21244789,8.9003125 C6.24165277,8.9015 6.27192079,8.9029375 6.30400238,8.90475 C7.37876712,8.9655 8.40175104,9.38475 9.2094193,10.102375 C9.32855271,10.2081875 9.47689101,10.26025 9.62472901,10.26025 C9.79714413,10.26025 9.96874628,10.189375 10.0923824,10.0505 C10.3218314,9.7925 10.2985676,9.3975 10.0404765,9.1681875 C9.21085765,8.431125 8.20150685,7.942875 7.12349017,7.7453125 C8.21676593,3.94425 11.7444282,1.250875 15.7584425,1.250875 C19.5102382,1.250875 22.9001936,3.6145625 24.1937761,7.132625 C24.2925849,7.4014375 24.5618076,7.5685 24.8464771,7.538625 C24.9657981,7.526 25.0823049,7.519625 25.1928708,7.519625 C26.9846248,7.519625 28.4423675,8.975375 28.4423675,10.7646875 C28.4423675,11.0025 28.4154765,11.24275 28.3623824,11.47875 C28.2953425,11.7770625 28.4540619,12.08 28.7376057,12.194875 C29.9701519,12.694375 30.7665634,13.8748125 30.7665634,15.2024375 C30.7665634,16.99175 29.3088207,18.4475 27.5171292,18.4475 L27.2316468,18.4475 L27.2316468,16.0000625 C27.2316468,15.6549375 26.9516677,15.375125 26.6062746,15.375125 Z M29.8929184,27.3744375 C29.410131,27.3744375 29.0174598,26.9819375 29.0174598,26.4995 C29.0174598,26.0170625 29.4101936,25.6245625 29.8929184,25.6245625 C30.3756432,25.6245625 30.768377,26.0170625 30.768377,26.4995 C30.768377,26.9819375 30.3757058,27.3744375 29.8929184,27.3744375 Z" id="Shape"></path>
                    </g>
                </g>
            </g>
        </g>
    </g>
</svg>