<?xml version="1.0" encoding="UTF-8"?>
<svg width="176px" height="35px" viewBox="0 0 176 35" version="1.1" xmlns="http://www.w3.org/2000/svg" xmlns:xlink="http://www.w3.org/1999/xlink">
    <!-- Generator: Sketch 52.2 (67145) - http://www.bohemiancoding.com/sketch -->
    <title>verteil_logo</title>
    <desc>Created with Sketch.</desc>
    <g id="Info-Website" stroke="none" stroke-width="1" fill="none" fill-rule="evenodd">
        <g id="Verteil" transform="translate(-81.000000, -56.000000)" fill="#80A83F">
            <g id="Banner">
                <g id="Header" transform="translate(81.000000, 56.000000)">
                    <g id="verteil_logo">
                        <path d="M63.5647709,5 L57.1079516,5 L51.228278,21.2142857 L51.1922064,21.2142857 L45.7093207,5 L39,5 L48.4146919,30 L53.0679305,30 L63.5647709,5 Z M82.8630858,30 L82.8630858,25.2142857 L72.1137441,25.2142857 L72.1137441,19.5357143 L82.8630858,19.5357143 L82.8630858,14.75 L72.1137441,14.75 L72.1137441,9.78571429 L82.8630858,9.78571429 L82.8630858,5 L66.2701422,5 L66.2701422,30 L82.8630858,30 Z M87.1916798,30 L93.0352817,30 L93.0352817,20.25 L93.287783,20.25 L99.9610321,30 L107.247499,30 C105.552133,27.7142857 101.872828,22.6428571 99.6363876,19.5714286 C102.37783,18.5 104.866772,16.3571429 104.866772,12.6071429 C104.866772,7.10714286 99.5642443,5 95.4160084,5 L87.1916798,5 L87.1916798,30 Z M93.0352817,9.78571429 L95.271722,9.78571429 C97.2917325,9.78571429 98.6624539,10.9642857 98.6624539,12.7142857 C98.6624539,14.6428571 96.9310163,15.4642857 94.5863612,15.4642857 L93.0352817,15.4642857 L93.0352817,9.78571429 Z M125.463665,9.78571429 L125.463665,5 L107.932859,5 L107.932859,9.78571429 L113.776461,9.78571429 L113.776461,30 L119.620063,30 L119.620063,9.78571429 L125.463665,9.78571429 Z M144.76198,30 L144.76198,25.2142857 L134.012638,25.2142857 L134.012638,19.5357143 L144.76198,19.5357143 L144.76198,14.75 L134.012638,14.75 L134.012638,9.78571429 L144.76198,9.78571429 L144.76198,5 L128.169036,5 L128.169036,30 L144.76198,30 Z M154.934176,30 L154.934176,5 L149.090574,5 L149.090574,30 L154.934176,30 Z M176,30 L176,25.2142857 L165.899947,25.2142857 L165.899947,5 L160.056345,5 L160.056345,30 L176,30 Z" id="Verteil"></path>
                        <path d="M29.7160483,16.7716038 L18.4060601,10.3878766 C18.9258822,12.0647664 19.1336297,14.9954898 14.3998911,22.2731373 C13.0635943,24.3270792 11.094076,27.4120512 8.61017872,30.257081 L3.2931144,33.5792892 C4.16946385,32.5085694 5.23632405,30.8100307 6.22879434,29.5453725 C9.12365055,25.8560346 12.351447,21.7409345 13.085367,16.0797402 C13.3139799,14.3189609 13.11349,10.5646762 11.8769845,6.70304889 L0.093440987,0.0523182392 L0,0 C0,0 1.524086,2.72956883 2.78690012,6.8645138 C3.48816112,9.1611041 4.10868185,11.891575 4.34273791,14.8295147 C4.94965073,22.4327981 2.90211376,31.4522822 1.38165654,34.4777196 C1.2800508,34.6788743 1.18116665,34.8538697 1.08591128,35 L2.70888143,33.9852066 L7.95427742,30.7081003 L30,16.9321667 L29.7160483,16.7716038 Z" id="logo"></path>
                    </g>
                </g>
            </g>
        </g>
    </g>
</svg>