<?xml version="1.0" encoding="UTF-8"?>
<svg width="30px" height="35px" viewBox="0 0 30 35" version="1.1" xmlns="http://www.w3.org/2000/svg" xmlns:xlink="http://www.w3.org/1999/xlink">
    <!-- Generator: Sketch 52 (66869) - http://www.bohemiancoding.com/sketch -->
    <title>verteil_logo</title>
    <desc>Created with Sketch.</desc>
    <g id="Design" stroke="none" stroke-width="1" fill="none" fill-rule="evenodd">
        <g id="Design-V.2.0" transform="translate(-120.000000, -17.000000)" fill="#FFFFFF">
            <g id="header">
                <g id="nav/logo" transform="translate(0.000000, 17.000000)">
                    <g id="verteil_logo_white" transform="translate(120.000000, 0.000000)">
                        <path d="M29.7160483,16.7716038 L18.4060601,10.3878766 C18.9258822,12.0647664 19.1336297,14.9954898 14.3998911,22.2731373 C13.0635943,24.3270792 11.094076,27.4120512 8.61017872,30.257081 L3.2931144,33.5792892 C4.16946385,32.5085694 5.23632405,30.8100307 6.22879434,29.5453725 C9.12365055,25.8560346 12.351447,21.7409345 13.085367,16.0797402 C13.3139799,14.3189609 13.11349,10.5646762 11.8769845,6.70304889 L0.093440987,0.0523182392 L0,0 C0,0 1.524086,2.72956883 2.78690012,6.8645138 C3.48816112,9.1611041 4.10868185,11.891575 4.34273791,14.8295147 C4.94965073,22.4327981 2.90211376,31.4522822 1.38165654,34.4777196 C1.2800508,34.6788743 1.18116665,34.8538697 1.08591128,35 L2.70888143,33.9852066 L7.95427742,30.7081003 L30,16.9321667 L29.7160483,16.7716038 Z" id="verteil_logo"></path>
                    </g>
                </g>
            </g>
        </g>
    </g>
</svg>