<?xml version="1.0" encoding="UTF-8"?>
<svg width="20px" height="20px" viewBox="0 0 20 20" version="1.1" xmlns="http://www.w3.org/2000/svg" xmlns:xlink="http://www.w3.org/1999/xlink">
    <!-- Generator: Sketch 47.1 (45422) - http://www.bohemiancoding.com/sketch -->
    <title>facebook</title>
    <desc>Created with Sketch.</desc>
    <defs></defs>
    <g id="Info-Website" stroke="none" stroke-width="1" fill="none" fill-rule="evenodd" opacity="0.799999952">
        <g id="Newsroom" transform="translate(-150.000000, -649.000000)" fill-rule="nonzero" fill="#CCCCCC">
            <g id="News-Room" transform="translate(80.000000, 349.000000)">
                <g id="1">
                    <g id="icons" transform="translate(40.000000, 300.000000)">
                        <path d="M30,0 L50,0 L50,20 L30,20 L30,0 Z M42.7583857,10.48748 L42.9939552,8.20085242 L40.9789025,8.20085242 L40.9789025,6.85384479 C40.9789025,6.34860593 41.3131445,6.22997691 41.5508475,6.22997691 L43,6.22997691 L43,4.00834665 L41.0027261,4 C38.7860614,4 38.2823871,5.6584976 38.2823871,6.71763452 L38.2823871,8.19872136 L37,8.19872136 L37,10.48748 L38.2823871,10.48748 L38.2823871,17 L40.9787247,17 L40.9787247,10.48748 L42.7583857,10.48748 Z" id="facebook"></path>
                    </g>
                </g>
            </g>
        </g>
    </g>
</svg>