<?xml version="1.0" encoding="UTF-8"?>
<svg width="20px" height="20px" viewBox="0 0 20 20" version="1.1" xmlns="http://www.w3.org/2000/svg" xmlns:xlink="http://www.w3.org/1999/xlink">
    <!-- Generator: Sketch 47.1 (45422) - http://www.bohemiancoding.com/sketch -->
    <title>link</title>
    <desc>Created with Sketch.</desc>
    <defs></defs>
    <g id="Info-Website" stroke="none" stroke-width="1" fill="none" fill-rule="evenodd" opacity="0.799999952">
        <g id="Newsroom" transform="translate(-240.000000, -649.000000)" fill-rule="nonzero" fill="#CCCCCC">
            <g id="News-Room" transform="translate(80.000000, 349.000000)">
                <g id="1">
                    <g id="icons" transform="translate(40.000000, 300.000000)">
                        <path d="M120,0 L140,0 L140,20 L120,20 L120,0 Z M135.911996,9.34323918 C137.362668,7.8922304 137.362668,5.53936491 135.911996,4.0883255 C134.46062,2.63722483 132.108122,2.63722483 130.656746,4.0883255 L128.665897,6.07911272 C129.46106,5.96258601 130.277881,6.04195528 131.036039,6.33716242 L131.970305,5.40188544 C132.695167,4.6775451 133.873606,4.6775451 134.597609,5.40188544 C135.322562,6.12622579 135.322562,7.30469561 134.597609,8.02958734 L131.970305,10.6567991 C131.246333,11.3807719 130.067587,11.3817827 129.343186,10.6567991 C129.116351,10.4299335 128.968977,10.1568738 128.884553,9.86843647 C128.816058,9.90795263 128.744378,9.94149541 128.686329,10.0000345 L127.465188,11.2210837 C127.62218,11.4858726 127.800953,11.7426357 128.029472,11.9705122 C129.480236,13.4218886 131.833347,13.4218886 133.283865,11.9705122 L135.911996,9.34323918 Z M128.964382,13.663366 L128.029442,14.598643 C127.305101,15.3226157 126.126295,15.3226157 125.401832,14.598643 C124.67743,13.8736593 124.67743,12.6951895 125.401832,11.9705122 L128.029442,9.34323918 C128.754364,8.61840871 129.932375,8.61840871 130.656715,9.34323918 C130.883029,9.56961468 131.030556,9.84261312 131.115776,10.1306828 C131.184669,10.0906459 131.255461,10.058114 131.31348,10.0000038 L132.534529,8.77944471 C132.378547,8.51361431 132.198856,8.25777017 131.970244,8.0296486 C130.519848,6.57854793 128.166523,6.57854793 126.715422,8.0296486 L124.088211,10.6569523 C122.637263,12.1084818 122.637263,14.4606734 124.088211,15.9120804 C125.539311,17.3627216 127.892085,17.3627216 129.343155,15.9120804 L131.334524,13.9208643 C130.538932,14.0380649 129.721897,13.9580217 128.964382,13.663366 Z" id="link"></path>
                    </g>
                </g>
            </g>
        </g>
    </g>
</svg>