<?xml version="1.0" encoding="UTF-8"?>
<svg width="20px" height="20px" viewBox="0 0 20 20" version="1.1" xmlns="http://www.w3.org/2000/svg" xmlns:xlink="http://www.w3.org/1999/xlink">
    <!-- Generator: Sketch 47.1 (45422) - http://www.bohemiancoding.com/sketch -->
    <title>mail</title>
    <desc>Created with Sketch.</desc>
    <defs></defs>
    <g id="Info-Website" stroke="none" stroke-width="1" fill="none" fill-rule="evenodd" opacity="0.799999952">
        <g id="Newsroom" transform="translate(-210.000000, -649.000000)" fill-rule="nonzero" fill="#CCCCCC">
            <g id="News-Room" transform="translate(80.000000, 349.000000)">
                <g id="1">
                    <g id="icons" transform="translate(40.000000, 300.000000)">
                        <path d="M90,0 L110,0 L110,20 L90,20 L90,0 Z M100.015059,10.7977912 L100.017627,10.7977912 C100.108118,10.7977912 100.197549,10.7716181 100.269902,10.7239631 L100.289529,10.7113945 C100.293804,10.7086189 100.298275,10.7060974 100.302765,10.7031067 L100.531353,10.5145782 L105.987412,6.02617311 C105.976118,6.01063344 105.956882,6 105.936392,6 L94.0633922,6 C94.0486667,6 94.035,6.00531672 94.0241176,6.01424959 L99.732451,10.7045727 C99.8043922,10.7639558 99.9070392,10.7977912 100.015059,10.7977912 Z M94,6.63599291 L94,13.2891235 L98.0892157,9.99606133 L94,6.63599291 Z M101.915059,10.0184033 L106,13.290824 L106,6.65811985 L101.915059,10.0184033 Z M100.616294,11.0865164 C100.453451,11.219708 100.240451,11.2931256 100.016765,11.2931256 C99.7922353,11.2931256 99.5794314,11.220138 99.4170196,11.0875719 L98.480451,10.3175469 L94,13.9251164 L94,13.9365903 C94,13.9708558 94.029451,14 94.0642353,14 L105.936608,14 C105.970745,14 105.99998,13.9708558 105.99998,13.9363753 L105.99998,13.9257419 L101.523392,10.3401234 L100.616294,11.0865164 Z" id="mail"></path>
                    </g>
                </g>
            </g>
        </g>
    </g>
</svg>