<?xml version="1.0" encoding="UTF-8" standalone="no"?>
<svg width="122px" height="30px" viewBox="0 0 122 30" version="1.1" xmlns="http://www.w3.org/2000/svg" xmlns:xlink="http://www.w3.org/1999/xlink">
    <!-- Generator: Sketch 40.1 (33804) - http://www.bohemiancoding.com/sketch -->
    <title>Team Verteil</title>
    <desc>Created with Sketch.</desc>
    <defs></defs>
    <g id="Page-1" stroke="none" stroke-width="1" fill="none" fill-rule="evenodd">
        <g id="Verteil" transform="translate(-85.000000, -1377.000000)" fill="#666666">
            <g id="About" transform="translate(79.000000, 923.000000)">
                <g id="Content">
                    <path d="M16.6970803,461.193011 C15.9770767,461.253011 15.4670818,461.283011 15.1670803,461.283011 C15.0870799,461.883014 14.8570822,462.543007 14.4770803,463.263011 C14.41708,463.483012 14.3370808,463.723009 14.2370803,463.983011 C14.0570794,464.563013 13.9670803,464.89301 13.9670803,464.973011 C13.8470797,465.133011 13.5070831,466.078002 12.9470803,467.808011 C12.3870775,469.538019 12.0870805,470.45301 12.0470803,470.553011 L10.6070803,474.483011 C10.2070783,475.243014 9.89708139,476.033006 9.67708029,476.853011 C9.45707919,477.673015 9.27708099,478.333008 9.13708029,478.833011 C8.99707959,479.333013 8.90208054,479.62801 8.85208029,479.718011 C8.80208004,479.808011 8.72708079,479.848011 8.62708029,479.838011 C8.52707979,479.82801 8.43208074,479.823011 8.34208029,479.823011 C8.25207984,479.823011 8.10708129,479.693012 7.90708029,479.433011 C7.70707929,479.173009 7.61708019,478.868012 7.63708029,478.518011 C7.65708039,478.168009 7.82207874,477.473016 8.13208029,476.433011 C8.44208184,475.393005 8.72707899,474.583013 8.98708029,474.003011 C9.04708059,473.723009 9.12207984,473.438012 9.21208029,473.148011 C9.30208074,472.858009 9.34708029,472.693011 9.34708029,472.653011 C9.56708139,472.393009 9.73207974,471.993013 9.84208029,471.453011 C9.95208084,470.913008 10.6770736,468.553031 12.0170803,464.373011 C12.1970812,464.073009 12.3670795,463.693013 12.5270803,463.233011 C12.6870811,463.13301 12.7670803,462.923012 12.7670803,462.603011 C13.0870819,461.923007 13.2670801,461.563011 13.3070803,461.523011 L13.3070803,461.493011 C10.3270654,461.773012 8.65708209,461.92301 8.29708029,461.943011 C7.39707579,462.043011 7.01707959,461.813013 7.15708029,461.253011 C7.25708079,460.833008 7.67707659,460.563011 8.41708029,460.443011 C8.81708229,460.34301 9.75707289,460.203011 11.2370803,460.023011 C12.5370868,459.84301 14.4870673,459.663011 17.0870803,459.483011 C17.2670812,459.483011 17.6970769,459.52801 18.3770803,459.618011 C19.0570837,459.708011 19.5370789,459.80301 19.8170803,459.903011 C20.6170843,460.083011 21.0970795,460.483007 21.2570803,461.103011 C21.3370807,461.383012 21.2570815,461.57301 21.0170803,461.673011 C20.9770801,461.693011 20.9470804,461.71301 20.9270803,461.733011 C20.1870766,461.953012 19.5970825,461.973011 19.1570803,461.793011 C19.0170796,461.67301 18.8970808,461.583011 18.7970803,461.523011 C18.5570791,461.38301 17.8570861,461.273011 16.6970803,461.193011 L16.6970803,461.193011 Z M22.3520803,470.343011 C22.702082,469.983009 22.8770803,469.668012 22.8770803,469.398011 C22.8770803,469.128009 22.7370817,468.908011 22.4570803,468.738011 C22.1770789,468.56801 21.8470822,468.53301 21.4670803,468.633011 C21.0870784,468.733011 20.6970823,468.963009 20.2970803,469.323011 C19.8970783,469.683012 19.5670816,470.038009 19.3070803,470.388011 C19.047079,470.738012 18.94708,470.94301 19.0070803,471.003011 C19.0870807,471.163011 19.4070775,471.25301 19.9670803,471.273011 C20.5270831,471.293011 20.9770786,471.233011 21.3170803,471.093011 C21.657082,470.95301 22.0020785,470.703012 22.3520803,470.343011 L22.3520803,470.343011 Z M21.3620803,475.893011 C21.3720803,475.893011 21.3920801,475.883011 21.4220803,475.863011 C21.4520804,475.84301 21.4670803,475.823011 21.4670803,475.803011 C21.607081,475.68301 21.7820792,475.518012 21.9920803,475.308011 C22.2020813,475.098009 22.3570798,474.993011 22.4570803,474.993011 C22.5570808,474.993011 22.6620797,475.04301 22.7720803,475.143011 C22.8820808,475.243011 22.9570801,475.30301 22.9970803,475.323011 C23.3170819,475.323011 23.2720823,475.583008 22.8620803,476.103011 C22.4520782,476.623013 21.9470833,477.073009 21.3470803,477.453011 C20.7070771,478.013013 19.9520846,478.218011 19.0820803,478.068011 C18.2120759,477.91801 17.5170829,477.483014 16.9970803,476.763011 C16.3770772,475.983007 16.1470795,474.733019 16.3070803,473.013011 C16.3870807,471.893005 16.8670759,470.748016 17.7470803,469.578011 C18.6270847,468.408005 19.5570754,467.633012 20.5370803,467.253011 C20.8170817,467.07301 21.0770791,466.978011 21.3170803,466.968011 C21.5570815,466.95801 21.9620774,466.99301 22.5320803,467.073011 C23.1020831,467.153011 23.5470787,467.393009 23.8670803,467.793011 C24.3670828,468.293013 24.6170803,468.873007 24.6170803,469.533011 C24.5370799,470.013013 24.227083,470.563007 23.6870803,471.183011 C23.1470776,471.803014 22.4970841,472.303009 21.7370803,472.683011 C20.6170747,473.023012 19.7070838,472.953013 19.0070803,472.473011 C18.6470785,472.33301 18.4020809,472.36301 18.2720803,472.563011 C18.1420796,472.763012 18.0270808,473.263007 17.9270803,474.063011 C17.7670795,475.443017 18.0970762,476.20301 18.9170803,476.343011 C18.9970807,476.363011 19.1170795,476.38801 19.2770803,476.418011 C19.4370811,476.448011 19.54208,476.46801 19.5920803,476.478011 C19.6420805,476.488011 19.7270797,476.49801 19.8470803,476.508011 C19.9670809,476.518011 20.0670799,476.513011 20.1470803,476.493011 C20.3070811,476.45301 20.4620795,476.388011 20.6120803,476.298011 C20.762081,476.20801 20.8770799,476.143011 20.9570803,476.103011 C21.1170811,476.02301 21.22208,475.968011 21.2720803,475.938011 C21.3220805,475.90801 21.3520802,475.893011 21.3620803,475.893011 L21.3620803,475.893011 Z M27.3770803,475.443011 C27.3770803,476.143014 27.7370767,476.283013 28.4570803,475.863011 C28.9370827,475.583009 29.5270768,475.093014 30.2270803,474.393011 C30.9270838,473.693007 31.5470776,472.978014 32.0870803,472.248011 C32.627083,471.518007 32.9770795,470.753015 33.1370803,469.953011 C33.0570799,469.733009 32.9270812,469.498012 32.7470803,469.248011 C32.5670794,468.998009 32.407081,468.863011 32.2670803,468.843011 C31.6470772,468.843011 30.7070866,469.713002 29.4470803,471.453011 L28.4570803,472.923011 C28.3370797,473.083011 28.1270818,473.508007 27.8270803,474.198011 C27.5270788,474.888014 27.3770803,475.30301 27.3770803,475.443011 L27.3770803,475.443011 Z M35.9720803,474.978011 C36.2620817,475.088011 36.4070803,475.318009 36.4070803,475.668011 C36.4070803,476.018012 36.1620827,476.373009 35.6720803,476.733011 C35.1820778,477.093012 34.7170825,477.273011 34.2770803,477.273011 C33.6770773,477.273011 33.0970831,476.203021 32.5370803,474.063011 C30.8970721,475.663019 30.0570805,476.49301 30.0170803,476.553011 C29.7970792,476.933012 29.2470847,477.293009 28.3670803,477.633011 C28.107079,477.713011 27.7770823,477.723011 27.3770803,477.663011 C26.9770783,477.60301 26.7770803,477.528011 26.7770803,477.438011 C26.7770803,477.34801 26.7720803,477.298011 26.7620803,477.288011 C26.7520802,477.27801 26.7070807,477.273011 26.6270803,477.273011 C26.5070797,477.13301 26.3270815,477.013011 26.0870803,476.913011 C25.9070794,476.653009 25.8170803,476.353012 25.8170803,476.013011 C25.8170803,475.673009 25.9070794,475.143014 26.0870803,474.423011 C26.1870808,473.443006 26.7820748,472.178018 27.8720803,470.628011 C28.9620857,469.078003 29.9570758,468.033013 30.8570803,467.493011 C31.4370832,466.913008 32.157076,466.853008 33.0170803,467.313011 C33.6370834,467.673012 34.177078,468.333006 34.6370803,469.293011 C34.7370808,469.793013 34.7370808,470.553005 34.6370803,471.573011 C34.3970791,472.393015 34.2770803,473.283006 34.2770803,474.243011 C34.2370801,474.623012 34.2820796,474.89301 34.4120803,475.053011 C34.5420809,475.213011 34.7620787,475.213011 35.0720803,475.053011 C35.3820818,474.89301 35.6820788,474.86801 35.9720803,474.978011 L35.9720803,474.978011 Z M39.6770803,468.003011 C39.6770803,467.723009 39.7920791,467.503011 40.0220803,467.343011 C40.2520814,467.18301 40.4770792,467.12301 40.6970803,467.163011 C41.2570831,467.283011 41.5470802,467.643008 41.5670803,468.243011 C41.5870804,468.563012 41.5070812,468.953008 41.3270803,469.413011 C40.4470759,471.573021 40.0070803,472.75301 40.0070803,472.953011 C40.0270804,473.033011 40.2070786,472.928012 40.5470803,472.638011 C40.887082,472.348009 41.2420784,472.033012 41.6120803,471.693011 C41.9820821,471.353009 42.5820761,470.923013 43.4120803,470.403011 C44.2420844,469.883008 44.8770781,469.553011 45.3170803,469.413011 C45.4370809,469.413011 45.5370799,469.42301 45.6170803,469.443011 C45.6970807,469.463011 45.76208,469.47801 45.8120803,469.488011 C45.8620805,469.498011 45.9320798,469.53801 46.0220803,469.608011 C46.1120807,469.678011 46.1770801,469.72301 46.2170803,469.743011 C46.3770811,469.923011 46.5620792,470.118009 46.7720803,470.328011 C46.9820813,470.538012 47.0270809,470.903008 46.9070803,471.423011 L46.3070803,473.313011 C47.8070878,472.033004 48.8070778,471.263012 49.3070803,471.003011 C50.2870852,470.503008 51.0170779,470.613007 51.4970803,471.333011 C51.7370815,471.573012 51.8620802,471.79301 51.8720803,471.993011 C51.8820803,472.193012 51.8870803,472.32301 51.8870803,472.383011 L51.8870803,473.403011 C52.0070809,474.963018 52.1020799,475.78801 52.1720803,475.878011 C52.2420806,475.968011 52.502078,476.04801 52.9520803,476.118011 C53.4020825,476.188011 53.6470801,476.333009 53.6870803,476.553011 C53.7270805,476.773012 53.5970818,476.98301 53.2970803,477.183011 C52.7570776,477.503012 52.0970842,477.518012 51.3170803,477.228011 C50.5370764,476.938009 50.1570802,476.023018 50.1770803,474.483011 C50.2170805,473.883008 50.2320803,473.413012 50.2220803,473.073011 C50.2120802,472.733009 50.137081,472.563011 49.9970803,472.563011 C49.737079,472.563011 49.1770846,472.903007 48.3170803,473.583011 C47.257075,474.443015 46.3170844,475.343006 45.4970803,476.283011 C45.3970798,476.423011 45.3170806,476.51801 45.2570803,476.568011 C45.19708,476.618011 45.1170808,476.68801 45.0170803,476.778011 C44.9170798,476.868011 44.8370806,476.92301 44.7770803,476.943011 C44.71708,476.963011 44.6370808,476.98301 44.5370803,477.003011 C44.3970796,477.043011 44.1070825,476.883012 43.6670803,476.523011 C43.4870794,476.36301 43.4370799,476.133012 43.5170803,475.833011 L44.2070803,473.853011 C44.8470835,472.313003 45.097081,471.543011 44.9570803,471.543011 C44.7770794,471.563011 44.5270819,471.65801 44.2070803,471.828011 C43.8870787,471.998011 43.6870807,472.16301 43.6070803,472.323011 C43.54708,472.323011 43.4070814,472.433009 43.1870803,472.653011 C42.9670792,472.873012 42.787081,473.02301 42.6470803,473.103011 C42.5470798,473.263011 42.2170831,473.618008 41.6570803,474.168011 C41.0970775,474.718013 40.7220812,475.07801 40.5320803,475.248011 C40.3420793,475.418011 40.1120816,475.673009 39.8420803,476.013011 C39.5720789,476.353012 39.3520811,476.638009 39.1820803,476.868011 C39.0120794,477.098012 38.9070805,477.213011 38.8670803,477.213011 C38.2470772,477.213011 37.8570811,476.913014 37.6970803,476.313011 C37.5570796,476.013009 37.5470797,475.583013 37.6670803,475.023011 C37.7870809,474.463008 37.8970798,473.983013 37.9970803,473.583011 C38.0970808,473.183009 38.17208,472.858012 38.2220803,472.608011 C38.2720805,472.358009 38.3170801,472.143011 38.3570803,471.963011 C38.3970805,471.78301 38.4270802,471.658011 38.4470803,471.588011 C38.4670804,471.51801 38.5120799,471.383012 38.5820803,471.183011 C38.6520806,470.98301 38.7470797,470.743012 38.8670803,470.463011 C38.9870809,470.183009 39.1520792,469.773013 39.3620803,469.233011 C39.5720813,468.693008 39.6770803,468.283012 39.6770803,468.003011 L39.6770803,468.003011 Z M65.3270803,464.343011 L65.1470803,462.513011 C65.1670804,461.813007 65.0670814,461.233013 64.8470803,460.773011 C64.3670779,460.433009 64.3320782,460.143012 64.7420803,459.903011 C65.1520823,459.663009 65.6770771,459.753008 66.3170803,460.173011 C66.3770806,460.173011 66.4220801,460.21301 66.4520803,460.293011 C66.4820804,460.373011 66.5070802,460.44301 66.5270803,460.503011 C66.667081,460.743012 66.7870798,460.93301 66.8870803,461.073011 C67.1470816,461.413012 67.1670814,463.332993 66.9470803,466.833011 C66.9670804,467.013011 66.9770803,467.388008 66.9770803,467.958011 C66.9770803,468.528013 67.00208,469.093008 67.0520803,469.653011 C67.1020805,470.213013 67.0970806,470.598009 67.0370803,470.808011 C66.97708,471.018012 66.97708,472.103001 67.0370803,474.063011 C66.9970801,474.683014 66.9820802,475.208008 66.9920803,475.638011 C67.0020803,476.068013 67.0770796,476.233011 67.2170803,476.133011 C67.6370824,475.033005 67.9470793,474.293012 68.1470803,473.913011 C68.8270837,472.593004 69.1470805,471.863011 69.1070803,471.723011 C69.2070808,471.403009 69.387079,471.143012 69.6470803,470.943011 C69.7270807,470.82301 69.8220797,470.658012 69.9320803,470.448011 C70.0420808,470.238009 70.1870794,470.013012 70.3670803,469.773011 C70.4670808,469.59301 71.0020754,468.608019 71.9720803,466.818011 C72.9420851,465.028002 73.5870787,463.933013 73.9070803,463.533011 C74.1270814,462.993008 74.3470792,462.673011 74.5670803,462.573011 C74.5870804,462.47301 74.6970793,462.243012 74.8970803,461.883011 C75.0970813,461.523009 75.22708,461.253011 75.2870803,461.073011 C75.6670822,460.593008 76.0270786,460.103013 76.3670803,459.603011 C76.9870834,458.643006 77.4570787,458.163011 77.7770803,458.163011 C78.0170815,458.223011 78.3120785,458.438009 78.6620803,458.808011 C79.012082,459.178012 79.1620805,459.40801 79.1120803,459.498011 C79.06208,459.588011 78.967081,459.743009 78.8270803,459.963011 C78.4070782,460.563014 77.9470828,461.113008 77.4470803,461.613011 C77.3270797,461.753011 77.1420815,462.048008 76.8920803,462.498011 C76.642079,462.948013 76.447081,463.26301 76.3070803,463.443011 C76.2070798,463.663012 75.982082,464.023008 75.6320803,464.523011 C75.2820785,465.023013 75.0820805,465.32801 75.0320803,465.438011 C74.98208,465.548011 74.7270826,465.903008 74.2670803,466.503011 C74.3070805,466.623011 74.2270813,466.793009 74.0270803,467.013011 C73.6270783,467.913015 73.2770818,468.543009 72.9770803,468.903011 C72.9570802,468.943011 72.8570812,469.098009 72.6770803,469.368011 C72.4970794,469.638012 72.3770806,469.86301 72.3170803,470.043011 C72.057079,470.303012 71.9370802,470.51301 71.9570803,470.673011 C71.7570793,471.013012 71.587081,471.403008 71.4470803,471.843011 C70.987078,472.543014 70.7270806,472.96301 70.6670803,473.103011 C70.60708,473.243011 70.5220808,473.37301 70.4120803,473.493011 C70.3020797,473.613011 70.2470803,473.70301 70.2470803,473.763011 C70.1070796,473.883011 69.8770819,474.313007 69.5570803,475.053011 C69.4170796,475.233011 69.2070817,475.603008 68.9270803,476.163011 C68.6270788,476.763014 68.1670834,477.633005 67.5470803,478.773011 C67.2270787,479.593015 66.7870831,479.683014 66.2270803,479.043011 C66.0870796,479.043011 65.947081,478.953011 65.8070803,478.773011 C65.4270784,478.873011 65.1720809,478.743012 65.0420803,478.383011 C64.9120796,478.023009 64.8870799,477.413015 64.9670803,476.553011 C65.1470812,475.233004 65.2220804,473.958017 65.1920803,472.728011 C65.1620801,471.498004 65.1620801,470.763012 65.1920803,470.523011 C65.2220804,470.283009 65.2420802,470.103011 65.2520803,469.983011 C65.2620803,469.86301 65.2670803,469.268016 65.2670803,468.198011 C65.2670803,467.128005 65.2870801,466.453012 65.3270803,466.173011 L65.3270803,464.343011 Z M82.1870803,468.933011 C81.8870788,468.593009 81.4370833,468.643008 80.8370803,469.083011 C80.6370793,469.143011 80.3420822,469.363009 79.9520803,469.743011 C79.5620783,470.123012 79.2270817,470.498009 78.9470803,470.868011 C78.6670789,471.238012 78.5770798,471.45301 78.6770803,471.513011 C78.6570802,471.553011 78.6820799,471.58301 78.7520803,471.603011 C78.8220806,471.623011 78.9120797,471.63801 79.0220803,471.648011 C79.1320808,471.658011 79.2370798,471.66801 79.3370803,471.678011 C79.4370808,471.688011 79.5320798,471.688011 79.6220803,471.678011 C79.7120807,471.66801 79.9120787,471.638011 80.2220803,471.588011 C80.5320818,471.53801 80.7270799,471.498011 80.8070803,471.468011 C80.8870807,471.43801 81.0270793,471.363011 81.2270803,471.243011 C81.4670815,471.10301 81.817078,470.703014 82.2770803,470.043011 C82.417081,469.503008 82.3870813,469.133012 82.1870803,468.933011 L82.1870803,468.933011 Z M75.5870803,470.553011 L76.0970803,470.493011 C76.3770817,470.493011 76.5170803,470.55301 76.5170803,470.673011 C76.657081,470.933012 76.8770788,470.863013 77.1770803,470.463011 C77.2770808,470.32301 77.3770798,470.153012 77.4770803,469.953011 C77.7570817,469.513008 78.1720775,469.048013 78.7220803,468.558011 C79.272083,468.068008 79.7270785,467.723012 80.0870803,467.523011 C80.7070834,467.243009 81.2770777,467.12801 81.7970803,467.178011 C82.3170829,467.228011 82.8470776,467.543008 83.3870803,468.123011 C83.727082,468.383012 83.9120801,468.783008 83.9420803,469.323011 C83.9720804,469.863013 83.8770814,470.333009 83.6570803,470.733011 C83.5770799,471.033012 83.262083,471.413008 82.7120803,471.873011 C82.1620775,472.333013 81.6570826,472.65301 81.1970803,472.833011 C80.7770782,472.933011 80.2470835,472.99801 79.6070803,473.028011 C78.9670771,473.058011 78.5470813,473.023011 78.3470803,472.923011 C78.2070796,472.84301 78.0970807,472.968009 78.0170803,473.298011 C77.9370799,473.628012 77.8720805,474.088008 77.8220803,474.678011 C77.77208,475.268013 77.7870799,475.62801 77.8670803,475.758011 C77.9470807,475.888011 78.0270799,475.98301 78.1070803,476.043011 C78.8070838,476.763014 79.5470764,476.803014 80.3270803,476.163011 C80.5670815,475.943009 80.8320788,475.683012 81.1220803,475.383011 C81.4120817,475.083009 81.6270796,474.873011 81.7670803,474.753011 C81.9270811,474.473009 82.2670777,474.40301 82.7870803,474.543011 C82.9870813,474.723011 83.0820803,474.89301 83.0720803,475.053011 C83.0620802,475.213011 82.982081,475.443009 82.8320803,475.743011 C82.6820795,476.043012 82.4120822,476.368009 82.0220803,476.718011 C81.6320783,477.068012 81.2870818,477.34301 80.9870803,477.543011 C79.927075,478.103013 78.8670856,478.183013 77.8070803,477.783011 C77.0270764,477.463009 76.5220814,477.018013 76.2920803,476.448011 C76.0620791,475.878008 75.9970798,475.143015 76.0970803,474.243011 C76.1970808,473.343006 76.2370804,472.783012 76.2170803,472.563011 C76.1970802,472.343009 76.1320808,472.183011 76.0220803,472.083011 C75.9120797,471.98301 75.8070808,471.883011 75.7070803,471.783011 C75.4870792,471.563009 75.3670804,471.388011 75.3470803,471.258011 C75.3270802,471.12801 75.34208,470.978011 75.3920803,470.808011 C75.4420805,470.63801 75.5070799,470.553011 75.5870803,470.553011 L75.5870803,470.553011 Z M91.4870803,468.663011 C92.4470851,467.983007 93.1720778,467.643011 93.6620803,467.643011 C94.1520827,467.643011 94.4970793,467.833009 94.6970803,468.213011 C95.0570821,468.853014 95.0370823,469.423008 94.6370803,469.923011 C94.4570794,470.143012 94.2270817,470.31301 93.9470803,470.433011 C93.6670789,470.553011 93.4670809,470.613011 93.3470803,470.613011 C93.2270797,470.613011 93.0770812,470.523011 92.8970803,470.343011 C92.7170794,470.16301 92.6170804,470.013011 92.5970803,469.893011 C92.5970803,469.79301 92.3170831,469.968008 91.7570803,470.418011 C91.1970775,470.868013 90.8270812,471.18301 90.6470803,471.363011 C90.187078,471.923013 89.3770861,473.362999 88.2170803,475.683011 C88.0970797,475.923012 87.9770809,476.213009 87.8570803,476.553011 C87.6370792,477.173014 87.4670809,477.50301 87.3470803,477.543011 C87.2270797,477.583011 87.0370816,477.563011 86.7770803,477.483011 C85.7570752,477.163009 85.7170756,476.323017 86.6570803,474.963011 C86.797081,474.683009 87.0670783,473.958016 87.4670803,472.788011 C87.8670823,471.618005 88.09708,470.963011 88.1570803,470.823011 C88.1970805,470.483009 88.1770807,470.243011 88.0970803,470.103011 C87.9970798,469.92301 87.8370814,469.833011 87.6170803,469.833011 C87.3970792,469.833011 87.2570806,469.823011 87.1970803,469.803011 C87.0370795,469.78301 86.9570803,469.573013 86.9570803,469.173011 C86.9970805,468.793009 87.2270782,468.473012 87.6470803,468.213011 C88.3670839,467.833009 88.9370782,467.823009 89.3570803,468.183011 C89.6170816,468.363011 89.7470803,469.023005 89.7470803,470.163011 C90.7870855,469.283006 91.3670797,468.783011 91.4870803,468.663011 L91.4870803,468.663011 Z M99.8570803,476.493011 L100.36708,476.463011 C100.647082,476.34301 100.497083,477.043003 99.9170803,478.563011 C99.8170798,478.723011 99.7120808,478.89801 99.6020803,479.088011 C99.4920797,479.278011 99.4070806,479.41801 99.3470803,479.508011 C99.28708,479.598011 99.2270806,479.68301 99.1670803,479.763011 C99.0670798,479.923011 98.9870806,480.003011 98.9270803,480.003011 C98.267077,479.90301 97.8220814,479.658012 97.5920803,479.268011 C97.3620791,478.878009 97.3070797,478.283015 97.4270803,477.483011 C97.4870806,477.30301 97.54708,477.083012 97.6070803,476.823011 C97.7070808,476.263008 97.8070798,475.943011 97.9070803,475.863011 C97.9870807,475.76301 97.9870807,475.673011 97.9070803,475.593011 C97.9070803,475.333009 98.0870785,474.743015 98.4470803,473.823011 C98.3270797,473.66301 98.3770792,473.488011 98.5970803,473.298011 C98.8170814,473.10801 98.8920806,472.963011 98.8220803,472.863011 C98.7520799,472.76301 98.7870796,472.573012 98.9270803,472.293011 C99.067081,472.013009 99.2320793,471.693012 99.4220803,471.333011 C99.6120812,470.973009 99.7270801,470.733011 99.7670803,470.613011 C99.7470802,470.55301 99.9120785,470.143014 100.26208,469.383011 C100.612082,468.623007 100.83708,468.153011 100.93708,467.973011 C101.097081,467.89301 101.032082,467.828011 100.74208,467.778011 C100.452079,467.72801 99.8770846,467.703011 99.0170803,467.703011 C98.157076,467.703011 97.5370822,467.593012 97.1570803,467.373011 C96.6770779,466.853008 96.8270764,466.573011 97.6070803,466.533011 L101.53708,466.203011 L101.62708,465.693011 C102.127083,464.833006 102.41708,464.153013 102.49708,463.653011 C102.837082,463.113008 103.03708,462.603013 103.09708,462.123011 C103.437082,461.583008 103.67708,461.168012 103.81708,460.878011 C103.957081,460.588009 104.03708,460.433011 104.05708,460.413011 C104.277081,460.23301 104.43208,460.143011 104.52208,460.143011 C104.612081,460.143011 104.807079,460.24301 105.10708,460.443011 C105.867084,460.923013 106.057082,461.333009 105.67708,461.673011 C105.59708,461.833011 105.477081,462.153008 105.31708,462.633011 C104.897078,463.153013 104.637081,463.693008 104.53708,464.253011 C104.117078,465.133015 103.857081,465.573011 103.75708,465.573011 C103.75708,465.773012 103.907079,465.873011 104.20708,465.873011 C104.867084,465.83301 105.297079,465.793011 105.49708,465.753011 C105.697081,465.71301 105.82708,465.683011 105.88708,465.663011 C106.067081,465.64301 106.247079,465.67301 106.42708,465.753011 C106.587081,465.993012 106.68208,466.238009 106.71208,466.488011 C106.74208,466.738012 106.657081,466.92301 106.45708,467.043011 C106.43708,467.043011 106.227082,467.10301 105.82708,467.223011 C105.507079,467.303011 104.597088,467.41301 103.09708,467.553011 C102.577078,468.553016 102.272081,469.14801 102.18208,469.338011 C102.09208,469.528011 102.04708,469.64301 102.04708,469.683011 L100.78708,472.323011 C100.70708,472.323011 100.66708,472.38301 100.66708,472.503011 C100.747081,472.743012 100.737081,472.90301 100.63708,472.983011 C100.477079,473.123011 100.337081,473.28301 100.21708,473.463011 C100.317081,473.563011 100.267081,473.793009 100.06708,474.153011 C100.06708,474.493012 99.9270817,475.003007 99.6470803,475.683011 C99.6670804,476.043012 99.6870802,476.27301 99.7070803,476.373011 C99.7270804,476.473011 99.7770799,476.513011 99.8570803,476.493011 L99.8570803,476.493011 Z M112.47208,470.343011 C112.822082,469.983009 112.99708,469.668012 112.99708,469.398011 C112.99708,469.128009 112.857082,468.908011 112.57708,468.738011 C112.297079,468.56801 111.967082,468.53301 111.58708,468.633011 C111.207078,468.733011 110.817082,468.963009 110.41708,469.323011 C110.017078,469.683012 109.687082,470.038009 109.42708,470.388011 C109.167079,470.738012 109.06708,470.94301 109.12708,471.003011 C109.207081,471.163011 109.527077,471.25301 110.08708,471.273011 C110.647083,471.293011 111.097079,471.233011 111.43708,471.093011 C111.777082,470.95301 112.122079,470.703012 112.47208,470.343011 L112.47208,470.343011 Z M111.48208,475.893011 C111.49208,475.893011 111.51208,475.883011 111.54208,475.863011 C111.57208,475.84301 111.58708,475.823011 111.58708,475.803011 C111.727081,475.68301 111.902079,475.518012 112.11208,475.308011 C112.322081,475.098009 112.47708,474.993011 112.57708,474.993011 C112.677081,474.993011 112.78208,475.04301 112.89208,475.143011 C113.002081,475.243011 113.07708,475.30301 113.11708,475.323011 C113.437082,475.323011 113.392082,475.583008 112.98208,476.103011 C112.572078,476.623013 112.067083,477.073009 111.46708,477.453011 C110.827077,478.013013 110.072085,478.218011 109.20208,478.068011 C108.332076,477.91801 107.637083,477.483014 107.11708,476.763011 C106.497077,475.983007 106.267079,474.733019 106.42708,473.013011 C106.507081,471.893005 106.987076,470.748016 107.86708,469.578011 C108.747085,468.408005 109.677075,467.633012 110.65708,467.253011 C110.937082,467.07301 111.197079,466.978011 111.43708,466.968011 C111.677081,466.95801 112.082077,466.99301 112.65208,467.073011 C113.222083,467.153011 113.667079,467.393009 113.98708,467.793011 C114.487083,468.293013 114.73708,468.873007 114.73708,469.533011 C114.65708,470.013013 114.347083,470.563007 113.80708,471.183011 C113.267078,471.803014 112.617084,472.303009 111.85708,472.683011 C110.737075,473.023012 109.827084,472.953013 109.12708,472.473011 C108.767078,472.33301 108.522081,472.36301 108.39208,472.563011 C108.26208,472.763012 108.147081,473.263007 108.04708,474.063011 C107.887079,475.443017 108.217076,476.20301 109.03708,476.343011 C109.117081,476.363011 109.237079,476.38801 109.39708,476.418011 C109.557081,476.448011 109.66208,476.46801 109.71208,476.478011 C109.762081,476.488011 109.84708,476.49801 109.96708,476.508011 C110.087081,476.518011 110.18708,476.513011 110.26708,476.493011 C110.427081,476.45301 110.58208,476.388011 110.73208,476.298011 C110.882081,476.20801 110.99708,476.143011 111.07708,476.103011 C111.237081,476.02301 111.34208,475.968011 111.39208,475.938011 C111.442081,475.90801 111.47208,475.893011 111.48208,475.893011 L111.48208,475.893011 Z M117.88708,469.023011 C117.987081,468.88301 118.147079,468.84801 118.36708,468.918011 C118.587081,468.988011 118.782079,469.11801 118.95208,469.308011 C119.122081,469.498011 119.182081,469.808008 119.13208,470.238011 C119.08208,470.668013 118.857082,471.588003 118.45708,472.998011 C118.057078,474.408018 117.87708,475.453007 117.91708,476.133011 C117.79708,477.053015 117.707081,477.52301 117.64708,477.543011 C117.307079,477.683011 117.007082,477.528013 116.74708,477.078011 C116.487079,476.628008 116.33708,476.223012 116.29708,475.863011 C116.377081,475.103007 116.43708,474.563012 116.47708,474.243011 C116.637081,473.503007 116.892079,472.488017 117.24208,471.198011 C117.592082,469.908004 117.80708,469.183011 117.88708,469.023011 L117.88708,469.023011 Z M119.38708,462.753011 C119.567081,462.493009 119.752079,462.358011 119.94208,462.348011 C120.132081,462.33801 120.427078,462.41301 120.82708,462.573011 C120.887081,462.633011 120.96208,462.773009 121.05208,462.993011 C121.142081,463.213012 121.22208,463.40801 121.29208,463.578011 C121.362081,463.748011 121.40708,463.87301 121.42708,463.953011 C121.44708,464.033011 121.47208,464.14801 121.50208,464.298011 C121.53208,464.448011 121.53208,464.57301 121.50208,464.673011 C121.47208,464.773011 121.43708,464.88301 121.39708,465.003011 C121.31708,465.223012 121.177081,465.40301 120.97708,465.543011 C120.777079,465.683011 120.557081,465.673011 120.31708,465.513011 C120.117079,465.49301 119.852082,465.318012 119.52208,464.988011 C119.192079,464.658009 119.02208,464.413011 119.01208,464.253011 C119.00208,464.09301 119.01708,463.868012 119.05708,463.578011 C119.09708,463.288009 119.207079,463.013012 119.38708,462.753011 L119.38708,462.753011 Z M123.55708,468.453011 L123.85708,467.313011 C124.177082,466.693007 124.737076,465.298021 125.53708,463.128011 C126.337084,460.958 126.73708,459.733012 126.73708,459.453011 C126.73708,459.173009 126.897079,459.033011 127.21708,459.033011 C127.317081,458.93301 127.477079,458.883011 127.69708,458.883011 L128.17708,459.363011 C128.397081,459.563012 128.50708,459.833009 128.50708,460.173011 C128.50708,460.513012 128.49708,460.73801 128.47708,460.848011 C128.45708,460.958011 128.43708,461.05801 128.41708,461.148011 C128.39708,461.238011 128.347081,461.37301 128.26708,461.553011 C128.18708,461.733011 128.117081,461.89301 128.05708,462.033011 C127.99708,462.173011 127.877081,462.428009 127.69708,462.798011 C127.517079,463.168012 127.372081,463.483009 127.26208,463.743011 C127.15208,464.003012 127.027081,464.278009 126.88708,464.568011 C126.74708,464.858012 126.637081,465.08801 126.55708,465.258011 C126.47708,465.428011 126.43708,465.53301 126.43708,465.573011 C126.43708,465.613011 126.42208,465.67801 126.39208,465.768011 C126.36208,465.858011 126.317081,465.97801 126.25708,466.128011 C126.19708,466.278011 126.117081,466.463009 126.01708,466.683011 C125.217076,468.443019 124.81708,469.41801 124.81708,469.608011 C124.81708,469.798011 124.767081,469.94301 124.66708,470.043011 C124.56708,470.043011 124.51708,470.12301 124.51708,470.283011 L124.51708,470.373011 C124.51708,470.573012 124.357082,471.103006 124.03708,471.963011 C123.177076,474.863025 122.74708,476.588008 122.74708,477.138011 C122.74708,477.688013 122.73208,478.03301 122.70208,478.173011 C122.67208,478.313011 122.587081,478.42301 122.44708,478.503011 C121.867077,478.663011 121.472081,478.423014 121.26208,477.783011 C121.052079,477.143007 121.067079,476.263016 121.30708,475.143011 C121.527081,474.563008 121.63708,474.143012 121.63708,473.883011 C121.697081,473.503009 121.902079,472.818015 122.25208,471.828011 C122.602082,470.838006 122.82708,470.243012 122.92708,470.043011 C123.127081,470.043011 123.22708,469.823013 123.22708,469.383011 C123.22708,468.943008 123.337079,468.633011 123.55708,468.453011 L123.55708,468.453011 Z" id="Team-Verteil" transform="translate(67.817945, 469.083011) rotate(-4.000000) translate(-67.817945, -469.083011) "></path>
                </g>
            </g>
        </g>
    </g>
</svg>