<?xml version="1.0" encoding="UTF-8" standalone="no"?>
<svg width="40px" height="40px" viewBox="0 0 40 40" version="1.1" xmlns="http://www.w3.org/2000/svg" xmlns:xlink="http://www.w3.org/1999/xlink">
    <!-- Generator: Sketch 40.1 (33804) - http://www.bohemiancoding.com/sketch -->
    <title>technology_icon_1</title>
    <desc>Created with Sketch.</desc>
    <defs></defs>
    <g id="Page-1" stroke="none" stroke-width="1" fill="none" fill-rule="evenodd">
        <g id="Verteil" transform="translate(-216.000000, -2572.000000)" fill="#666666">
            <g id="Technology" transform="translate(0.000000, 2380.000000)">
                <g id="1" transform="translate(80.000000, 157.000000)">
                    <path d="M152.7507,50.6917 C150.3637,50.6917 148.1227,49.7827 146.4377,48.1317 C144.7887,46.5157 143.8807,44.3497 143.8797,42.0347 C143.8797,40.0037 144.5777,38.0747 145.8617,36.5097 L158.3177,48.7687 C156.7417,50.0147 154.7977,50.6917 152.7507,50.6917 L152.7507,50.6917 Z M167.1077,73.9973 L167.1077,71.5252 L173.9997,71.5252 C175.1297,71.5252 175.9997,70.6532 175.9997,69.5192 L175.9997,57.7452 C175.9997,56.6112 175.1297,55.7392 173.9997,55.7392 L159.2167,55.7392 C158.0867,55.7392 157.2167,56.6112 157.2167,57.7452 L157.2167,69.5192 C157.2167,70.6532 158.0867,71.5252 159.2167,71.5252 L166.1077,71.5252 L166.1077,73.9973 L159.9127,73.9973 L159.9127,75.0003 L173.3047,75.0003 L173.3047,73.9973 L167.1077,73.9973 Z M153.162807,42.2897887 L159.7387,48.7617 L159.7387,48.8487 C155.8257,52.6867 149.5647,52.5997 145.7387,48.8487 C141.9127,45.0987 141.9127,38.9067 145.8257,35.0687 L152.470306,41.6082383 L159.1004,35 L159.7764,35.698 L153.162807,42.2897887 Z M142.6522,61.7577 L136,61.7577 L143.043,52.0767 L150.174,61.7577 L143.6522,61.7577 L143.6522,67.6003 L153.0432,67.6003 L153.0432,68.6033 L143.6522,68.6033 L142.6522,68.6033 L142.6522,67.6003 L142.6522,61.7577 Z M143.048,53.7707 L148.192,60.7547 L137.967,60.7547 L143.048,53.7707 Z M169.4343,51.5091 L168.4343,51.5091 L168.4343,42.7441 L158.9993,42.7441 L158.9993,41.7411 L168.4343,41.7411 L169.4343,41.7411 L169.4343,42.7441 L169.4343,51.5091 Z M174.9997,69.5192 C174.9997,70.1002 174.5787,70.5222 173.9997,70.5222 L159.2177,70.5222 C158.6387,70.5222 158.2177,70.1002 158.2177,69.5192 L158.2177,57.7452 C158.2177,57.1642 158.6387,56.7422 159.2177,56.7422 L173.9997,56.7422 C174.5787,56.7422 174.9997,57.1642 174.9997,57.7452 L174.9997,69.5192 Z" id="technology_icon_1"></path>
                </g>
            </g>
        </g>
    </g>
</svg>