<?xml version="1.0" encoding="UTF-8" standalone="no"?>
<svg width="27px" height="40px" viewBox="0 0 27 40" version="1.1" xmlns="http://www.w3.org/2000/svg" xmlns:xlink="http://www.w3.org/1999/xlink">
    <!-- Generator: Sketch 40.1 (33804) - http://www.bohemiancoding.com/sketch -->
    <title>technology_icon_2</title>
    <desc>Created with Sketch.</desc>
    <defs></defs>
    <g id="Page-1" stroke="none" stroke-width="1" fill="none" fill-rule="evenodd">
        <g id="Verteil" transform="translate(-628.000000, -2572.000000)" fill="#666666">
            <g id="Technology" transform="translate(0.000000, 2380.000000)">
                <g id="2" transform="translate(470.000000, 157.000000)">
                    <path d="M167.663,39.635 C169.289,39.635 170.612,40.914 170.612,42.485 L170.612,45.238 C172.026,44.297 172.866,42.759 172.866,41.095 C172.866,38.322 170.532,36.066 167.663,36.066 C164.794,36.066 162.46,38.322 162.46,41.095 C162.46,42.758 163.3,44.297 164.714,45.237 L164.714,42.485 C164.714,40.914 166.037,39.635 167.663,39.635 L167.663,39.635 Z M160.47,53.679 C159.833,53.679 159.564,53.905 159.402,54.102 C159.214,54.329 159.103,54.665 159.103,55 C159.103,61.651 163.638,66.989 168.539,71.767 C168.643,71.871 168.698,72.007 168.694,72.151 L168.694,74.003 L181.091,73.934 L181.019,70.296 C181.02,70.151 181.083,70.01 181.191,69.912 C182.616,68.578 183.628,66.444 183.897,64.204 L183.897,57.781 C183.897,56.781 183.085,55.997 182.05,55.997 C181.015,55.997 180.204,56.781 180.204,57.781 C180.204,58.075 179.957,58.314 179.652,58.314 C179.348,58.314 179.101,58.075 179.101,57.781 L179.101,55.464 C179.101,54.463 178.29,53.679 177.254,53.679 C176.219,53.679 175.408,54.463 175.408,55.464 C175.408,55.758 175.161,55.997 174.857,55.997 C174.552,55.997 174.305,55.758 174.305,55.464 L174.305,53.146 C174.305,52.146 173.494,51.362 172.459,51.362 C171.423,51.362 170.612,52.146 170.612,53.146 C170.612,53.44 170.365,53.679 170.061,53.679 C169.756,53.679 169.509,53.44 169.509,53.146 L169.509,42.485 C169.509,41.485 168.698,40.701 167.663,40.701 C166.628,40.701 165.817,41.485 165.817,42.485 L165.817,58.708 C165.816,58.891 165.72,59.057 165.562,59.155 C165.473,59.21 165.37,59.239 165.266,59.239 C165.076,59.239 164.902,59.146 164.8,58.992 L162.401,55.283 C162.044,54.73 161.746,54.309 161.455,54.052 C161.147,53.78 160.879,53.679 160.47,53.679 L160.47,53.679 Z M168.143,75 C167.838,75 167.591,74.761 167.591,74.467 L167.591,72.323 C162.619,67.487 158,62.001 158,55 C158,54.413 158.191,53.857 158.54,53.436 C158.971,52.913 159.675,52.613 160.47,52.613 C161.124,52.613 161.721,52.835 162.197,53.254 C162.642,53.646 162.977,54.166 163.333,54.717 L164.714,56.857 L164.714,46.454 C162.658,45.46 161.357,43.383 161.357,41.095 C161.357,37.734 164.186,35 167.663,35 C171.14,35 173.969,37.734 173.969,41.095 C173.969,43.383 172.668,45.46 170.573,46.516 L170.611,50.952 C171.147,50.528 171.797,50.296 172.459,50.296 C174.085,50.296 175.408,51.574 175.408,53.146 L175.408,53.269 C175.943,52.845 176.593,52.613 177.254,52.613 C178.881,52.613 180.204,53.892 180.204,55.464 L180.204,55.587 C180.74,55.162 181.389,54.93 182.05,54.93 C183.677,54.93 185,56.209 185,57.781 L185,64.27 C184.712,66.712 183.656,68.965 182.102,70.503 L182.122,74.467 C182.122,74.761 181.875,75 181.571,75 L168.143,75 Z" id="technology_icon_2"></path>
                </g>
            </g>
        </g>
    </g>
</svg>