<?xml version="1.0" encoding="UTF-8" standalone="no"?>
<svg width="34px" height="40px" viewBox="0 0 34 40" version="1.1" xmlns="http://www.w3.org/2000/svg" xmlns:xlink="http://www.w3.org/1999/xlink">
    <!-- Generator: Sketch 40.1 (33804) - http://www.bohemiancoding.com/sketch -->
    <title>technology_icon_1</title>
    <desc>Created with Sketch.</desc>
    <defs></defs>
    <g id="Page-1" stroke="none" stroke-width="1" fill="none" fill-rule="evenodd">
        <g id="Verteil" transform="translate(-219.000000, -2572.000000)" fill="#666666">
            <g id="Technology" transform="translate(0.000000, 2380.000000)">
                <g id="1" transform="translate(80.000000, 157.000000)">
                    <path d="M165.1904,51.566 C164.7854,51.661 164.3304,51.703 163.7154,51.703 C163.4624,51.703 163.2084,51.696 162.9554,51.69 C162.6854,51.683 162.4164,51.676 162.1474,51.676 C160.9844,51.678 159.8414,51.678 158.6984,51.678 C155.2364,51.678 151.7744,51.673 148.3134,51.667 L145.3854,51.663 C144.4264,51.662 143.5364,51.291 142.8794,50.618 C142.2264,49.95 141.8784,49.058 141.8994,48.108 C141.9334,46.528 143.1274,45.034 144.6764,44.633 L145.3224,44.465 L145.4134,43.804 C145.6524,42.063 146.9264,40.386 148.3144,39.986 C148.7854,39.849 149.3534,39.777 149.9564,39.777 C150.4294,39.777 150.7574,39.822 150.7614,39.822 L151.3894,39.909 L151.7364,39.377 C152.1274,38.773 152.8204,37.799 153.1364,37.527 C154.2814,36.54 155.6624,35.997 157.0264,35.997 C158.6644,35.997 160.1634,36.738 161.3604,38.141 C162.0844,38.99 162.5544,40.016 162.7204,41.108 L162.8324,41.964 C162.8324,41.964 163.0314,41.893 164.4044,41.988 C165.7774,42.083 167.0774,42.693 167.9724,43.815 C169.0124,45.118 169.3064,46.829 168.7574,48.41 C168.1974,50.024 166.8974,51.167 165.1904,51.566 M155.816,74.003 L155.816,73.0074 L161.9205,73.0074 C162.186567,73.0074 162.403958,72.7977157 162.4178,72.5350305 L162.4178,73.0072 L162.4178,72.5350305 C162.418265,72.5262114 162.4185,72.5173326 162.4185,72.5084 L162.4185,62.5434 C162.4185,62.3229739 162.275227,62.1359569 162.076742,62.0704105 C162.274858,62.1361895 162.4178,62.3230288 162.4178,62.5432 L162.4178,72.5350305 C162.4178,72.5350305 162.4178,72.5350305 162.4178,72.5350305 L162.4178,62.5432 C162.4178,62.3230288 162.274858,62.1361895 162.07673,62.0704384 C162.071033,62.0685252 162.065278,62.0667405 162.05948,62.0650582 C162.015154,62.052132 161.968285,62.0452 161.9198,62.0452 L148.2178,62.0452 L161.9198,62.0452 C161.968285,62.0452 162.015154,62.052132 162.059469,62.0650588 C162.015368,62.0522603 161.968734,62.0454 161.9205,62.0454 L148.7165,62.0454 C148.44636,62.0454 148.226994,62.2590304 148.2178,62.5259543 L148.2178,62.0452 L148.2178,62.5259543 C148.217601,62.531745 148.2175,62.5375608 148.2175,62.5434 L148.2175,72.5084 C148.2175,72.5142392 148.217601,72.5200555 148.2178,72.525847 L148.2178,73.0072 L148.2178,72.525847 C148.226994,72.7928116 148.44636,73.0074 148.7165,73.0074 L154.819,73.0074 L154.819,74.003 L151.692,74.003 L151.692,75 L158.944,75 L158.944,74.003 L155.816,74.003 Z M168.7514,43.171 C167.6644,41.809 166.2264,41.092 164.4854,40.95 C164.2154,40.928 163.9164,40.901 163.7064,40.959 C163.5164,39.712 162.9864,38.512 162.1184,37.494 C159.3994,34.307 155.3604,34.294 152.4854,36.772 C151.9184,37.261 150.8994,38.835 150.8994,38.835 C150.8994,38.835 149.4294,38.626 148.0374,39.028 C146.1754,39.566 144.7064,41.627 144.4264,43.668 C142.4464,44.182 140.9474,46.059 140.9024,48.086 C140.8474,50.613 142.8464,52.656 145.3844,52.659 C150.9654,52.668 156.5474,52.68 162.1284,52.673 C163.2254,52.672 164.3314,52.79 165.4174,52.536 C169.7614,51.522 171.3914,46.479 168.7514,43.171 Z M171.2258,65.9419 L168.0908,65.9419 C167.6478,65.9419 167.2888,66.2979 167.2888,66.7379 L167.2888,72.7099 C167.2888,73.1489 167.6478,73.5049 168.0908,73.5049 L171.2258,73.5049 C171.6688,73.5049 172.0278,73.1489 172.0278,72.7099 L172.0278,66.7379 C172.0278,66.2979 171.6688,65.9419 171.2258,65.9419 Z M170.6358,72.1629 L168.6778,72.1629 C168.4718,72.1629 168.3038,71.9969 168.3038,71.7919 L168.3078,67.5509 C168.3078,67.3459 168.4748,67.1799 168.6808,67.1789 L170.6388,67.1779 C170.8458,67.1779 171.0128,67.3439 171.0128,67.5499 L171.0098,71.7919 C171.0098,71.9969 170.8428,72.1629 170.6358,72.1629 Z M169.6378,73.2429 C169.4918,73.2429 169.3738,73.1249 169.3738,72.9799 C169.3738,72.8349 169.4918,72.7179 169.6378,72.7179 C169.7838,72.7179 169.9028,72.8349 169.9028,72.9799 C169.9028,73.1249 169.7838,73.2429 169.6378,73.2429 Z M169.3908,66.2809 L169.8138,66.2809 C169.9308,66.2809 170.0258,66.4139 170.0258,66.5299 C170.0258,66.6459 169.9308,66.7789 169.8138,66.7789 L169.3908,66.7789 C169.2738,66.7789 169.1798,66.6459 169.1798,66.5299 C169.1798,66.4139 169.2738,66.2809 169.3908,66.2809 Z M139.0004,65.9646 L139.0004,72.8246 C139.0004,73.2006 139.3044,73.5056 139.6804,73.5056 L145.0454,73.5056 C145.4214,73.5056 145.7264,73.2006 145.7264,72.8246 L145.7264,65.9646 C145.7264,65.5886 145.4214,65.2836 145.0454,65.2836 L139.6804,65.2836 C139.3044,65.2836 139.0004,65.5886 139.0004,65.9646 Z M144.3374,72.2596 L140.3894,72.2596 C140.1724,72.2596 139.9964,72.0836 139.9964,71.8666 L139.9964,66.6726 C139.9964,66.4566 140.1724,66.2806 140.3894,66.2806 L144.3374,66.2806 C144.5544,66.2806 144.7304,66.4566 144.7304,66.6726 L144.7304,71.8666 C144.7304,72.0836 144.5544,72.2596 144.3374,72.2596 Z M142.5164,73.2106 C142.3314,73.2106 142.1824,73.0616 142.1824,72.8786 C142.1824,72.6956 142.3314,72.5466 142.5164,72.5466 C142.7004,72.5466 142.8504,72.6956 142.8504,72.8786 C142.8504,73.0616 142.7004,73.2106 142.5164,73.2106 Z M154.981,60.398 L155.978,60.398 L155.978,54.68 L154.981,54.68 L154.981,60.398 Z M168.4106,61.1729 L167.9436,62.0539 L157.7056,55.9249 L158.1716,55.0449 L168.4106,61.1729 Z M142.5497,61.1729 L143.0167,62.0539 L153.2547,55.9249 L152.7887,55.0449 L142.5497,61.1729 Z M148.2178,62.5259543 L148.2178,72.525847 C148.2178,72.525847 148.2178,72.525847 148.2178,72.525847 L148.2178,62.5259543 C148.2178,62.5259543 148.2178,62.5259543 148.2178,62.5259543 Z M160.9235,72.0104 L149.7125,72.0104 C149.4375,72.0104 149.2145,71.7874 149.2145,71.5124 L149.2145,63.5404 C149.2145,63.2644 149.4375,63.0414 149.7125,63.0414 L160.9235,63.0414 C161.1985,63.0414 161.4215,63.2644 161.4215,63.5404 L161.4215,71.5124 C161.4215,71.7874 161.1985,72.0104 160.9235,72.0104 Z" id="technology_icon_1"></path>
                </g>
            </g>
        </g>
    </g>
</svg>