<?xml version="1.0" encoding="UTF-8" standalone="no"?>
<svg width="40px" height="40px" viewBox="0 0 40 40" version="1.1" xmlns="http://www.w3.org/2000/svg" xmlns:xlink="http://www.w3.org/1999/xlink">
    <!-- Generator: Sketch 40.1 (33804) - http://www.bohemiancoding.com/sketch -->
    <title>technology_icon_3</title>
    <desc>Created with Sketch.</desc>
    <defs></defs>
    <g id="Page-1" stroke="none" stroke-width="1" fill="none" fill-rule="evenodd">
        <g id="Verteil" transform="translate(-1010.000000, -2572.000000)" fill="#666666">
            <g id="Technology" transform="translate(0.000000, 2380.000000)">
                <g id="3" transform="translate(860.000000, 157.000000)">
                    <path d="M150,75 L150,35 L150.806,35.001 C150.812,35.12 150.818,35.24 150.818,35.358 L150.819,60.87 L157.73,53.684 L164.327,59.332 L172.831,48.476 L179.895,55.502 L187.812,40.007 L186.352,39.232 L189.802,36.995 L189.818,37.291 C189.848,37.849 189.876,38.38 189.909,38.91 C189.924,39.163 189.947,39.416 189.97,39.669 L190,40 L190,41.116 L188.559,40.399 L180.058,57.032 L172.997,49.635 L164.447,60.548 L157.807,54.864 L157.596,55.05 C157.537,55.102 157.49,55.142 157.448,55.187 L155.961,56.737 C154.359,58.407 152.758,60.077 151.151,61.74 C150.914,61.985 150.813,62.237 150.813,62.581 C150.82,65.442 150.819,68.303 150.819,71.163 L150.818,74.21 L189.156,74.21 L189.156,75 L150,75 Z" id="technology_icon_3"></path>
                </g>
            </g>
        </g>
    </g>
</svg>