<?xml version="1.0" encoding="UTF-8"?>
<svg width="20px" height="20px" viewBox="0 0 20 20" version="1.1" xmlns="http://www.w3.org/2000/svg" xmlns:xlink="http://www.w3.org/1999/xlink">
    <!-- Generator: Sketch 47.1 (45422) - http://www.bohemiancoding.com/sketch -->
    <title>twitter</title>
    <desc>Created with Sketch.</desc>
    <defs></defs>
    <g id="Info-Website" stroke="none" stroke-width="1" fill="none" fill-rule="evenodd" opacity="0.799999952">
        <g id="Newsroom" transform="translate(-180.000000, -649.000000)" fill-rule="nonzero" fill="#CCCCCC">
            <g id="News-Room" transform="translate(80.000000, 349.000000)">
                <g id="1">
                    <g id="icons" transform="translate(40.000000, 300.000000)">
                        <path d="M60,0 L80,0 L80,20 L60,20 L60,0 Z M76,7.06546173 C75.5586156,7.24608868 75.0838153,7.36825755 74.5858808,7.42281841 C75.0942807,7.14171138 75.4844395,6.69692177 75.6685945,6.16605479 C75.1928762,6.42648969 74.6657486,6.61541937 74.1052052,6.71725501 C73.6561094,6.27585428 73.016249,6 72.3077206,6 C70.9483154,6 69.8457725,7.01750918 69.8457725,8.27207004 C69.8457725,8.45015532 69.8676214,8.62349619 69.9098504,8.78988986 C67.8637657,8.69517086 66.0495731,7.7906806 64.8352153,6.4156453 C64.6233361,6.75114374 64.5017901,7.14171138 64.5017901,7.55803445 C64.5017901,8.34611692 64.9367484,9.04185258 65.5969889,9.44919514 C65.1936106,9.43750353 64.8137336,9.335329 64.4819609,9.16469924 C64.4817773,9.17435753 64.4817773,9.18401581 64.4817773,9.19350466 C64.4817773,10.2943801 65.3307629,11.2125953 66.4568071,11.4211805 C66.2504361,11.4733691 66.0324979,11.5009884 65.8083173,11.5009884 C65.6493161,11.5009884 65.4952722,11.4869246 65.345084,11.4604914 C65.6583127,12.3629483 66.5673368,13.0198814 67.6449096,13.0383507 C66.8021665,13.6478396 65.7407509,14.0109574 64.5869825,14.0109574 C64.38869,14.0109574 64.1922335,14.0002824 64,13.9791019 C65.0889562,14.6240045 66.3833655,15 67.7736161,15 C72.3020288,15 74.7784816,11.5379271 74.7784816,8.53521604 C74.7784816,8.43676927 74.7760947,8.3386614 74.771321,8.24140073 C75.2527311,7.92115222 75.6700633,7.52109574 76,7.06546173 Z" id="twitter"></path>
                    </g>
                </g>
            </g>
        </g>
    </g>
</svg>